<svg viewBox="0 0 30 30" xmlns="http://www.w3.org/2000/svg">
<g clip-path="url(#clip0_494_932)">
<path d="M20.625 26.25V28.5938C20.625 29.3704 19.9954 30 19.2188 30H3.28125C2.50459 30 1.875 29.3704 1.875 28.5938V7.03125C1.875 6.25459 2.50459 5.625 3.28125 5.625H7.5V22.9688C7.5 24.7781 8.97193 26.25 10.7812 26.25H20.625ZM20.625 6.09375V0H10.7812C10.0046 0 9.375 0.62959 9.375 1.40625V22.9688C9.375 23.7454 10.0046 24.375 10.7812 24.375H26.7188C27.4954 24.375 28.125 23.7454 28.125 22.9688V7.5H22.0312C21.2578 7.5 20.625 6.86719 20.625 6.09375ZM27.7131 4.27564L23.8494 0.411855C23.5856 0.14815 23.228 1.94998e-06 22.855 0L22.5 0V5.625H28.125V5.26998C28.125 4.89704 27.9769 4.53936 27.7131 4.27564Z" fill="currentColor"/>
</g>
<defs>
<clipPath id="clip0_494_932">
<rect width="30" height="30" fill="white"/>
</clipPath>
</defs>
</svg>
