<svg viewBox="0 0 32 32" xmlns="http://www.w3.org/2000/svg">
<path d="M21.6133 5.54688L26.9466 10.8802V5.54688H21.6133ZM26.9466 21.5469L21.6133 26.8802H26.9466V21.5469ZM10.9466 26.8802L5.61328 21.5469V26.8802H10.9466ZM5.61328 10.8802L10.9466 5.54688H5.61328V10.8802ZM22.8799 9.61354C19.2399 5.97354 13.3199 5.97354 9.67995 9.61354C6.03995 13.2535 6.03995 19.1735 9.67995 22.8135C13.3199 26.4535 19.2399 26.4535 22.8799 22.8135C26.5199 19.1735 26.5199 13.2669 22.8799 9.61354V9.61354ZM21.4133 21.3469C18.5733 24.1869 13.9866 24.1869 11.1466 21.3469C8.30661 18.5069 8.30661 13.9202 11.1466 11.0802C13.9866 8.24021 18.5733 8.24021 21.4133 11.0802C24.2533 13.9202 24.2533 18.5069 21.4133 21.3469Z" fill="currentColor" />
</svg>
