<svg viewBox="0 0 32 32" xmlns="http://www.w3.org/2000/svg">
<path d="M27 23C27 19.5125 24.9562 16.5 22 15.0969V9.91562C22 9.44375 21.8344 8.9875 21.5281 8.62813L16.7656 2.98125C16.5656 2.74375 16.2812 2.625 16 2.625C15.7188 2.625 15.4344 2.74375 15.2344 2.98125L10.4719 8.62813C10.1677 8.98824 10.0006 9.44425 10 9.91562V15.0969C7.04375 16.5 5 19.5125 5 23H9.89062C9.81875 23.225 9.78125 23.4687 9.78125 23.7437C9.78125 24.4344 10.0187 25.1094 10.45 25.6437C10.802 26.0808 11.2682 26.4118 11.7969 26.6C12.5188 28.2875 14.1594 29.375 16 29.375C16.9094 29.375 17.7906 29.1063 18.5438 28.6C19.2813 28.1063 19.8531 27.4156 20.2 26.6C20.7285 26.4129 21.1947 26.083 21.5469 25.6469C21.9787 25.1076 22.2145 24.4377 22.2156 23.7469C22.2156 23.4844 22.1812 23.2344 22.1187 23.0031H27V23ZM23.8219 19.4188C24.1156 19.875 24.3531 20.3656 24.525 20.875H21.875V17.4594C22.6547 17.9682 23.3181 18.6359 23.8219 19.4188V19.4188ZM12.125 15.0969V9.9625L16 5.36875L19.875 9.9625V20.875H12.125V15.0969ZM7.475 20.875C7.64687 20.3656 7.88438 19.875 8.17813 19.4188C8.6875 18.6313 9.35 17.9656 10.125 17.4594V20.875H7.475ZM19.6281 24.5063C19.4656 24.6 19.2781 24.6375 19.0938 24.6125L18.4844 24.5375L18.3969 25.1437C18.2281 26.3281 17.1969 27.2219 16 27.2219C14.8031 27.2219 13.7719 26.3281 13.6031 25.1437L13.5156 24.5344L12.9062 24.6125C12.721 24.6346 12.5336 24.5962 12.3719 24.5031C12.1 24.3469 11.9312 24.0563 11.9312 23.7406C11.9312 23.4094 12.1156 23.1344 12.3875 22.9969H19.6156C19.8906 23.1375 20.0719 23.4125 20.0719 23.7406C20.0687 24.0594 19.9 24.3531 19.6281 24.5063ZM14.5 12.5C14.5 12.8978 14.658 13.2794 14.9393 13.5607C15.2206 13.842 15.6022 14 16 14C16.3978 14 16.7794 13.842 17.0607 13.5607C17.342 13.2794 17.5 12.8978 17.5 12.5C17.5 12.1022 17.342 11.7206 17.0607 11.4393C16.7794 11.158 16.3978 11 16 11C15.6022 11 15.2206 11.158 14.9393 11.4393C14.658 11.7206 14.5 12.1022 14.5 12.5V12.5Z" />
</svg>
