<svg viewBox="0 0 32 32" xmlns="http://www.w3.org/2000/svg">
<path d="M18.7466 13.2532L15.9999 11.9998L18.7466 10.7465L19.9999 7.99984L21.2533 10.7465L23.9999 11.9998L21.2533 13.2532L19.9999 15.9998L18.7466 13.2532ZM5.33325 18.6665L6.58659 15.9198L9.33325 14.6665L6.58659 13.4132L5.33325 10.6665L4.07992 13.4132L1.33325 14.6665L4.07992 15.9198L5.33325 18.6665ZM11.3333 11.9998L12.7866 8.7865L15.9999 7.33317L12.7866 5.87984L11.3333 2.6665L9.87992 5.87984L6.66658 7.33317L9.87992 8.7865L11.3333 11.9998ZM5.99992 27.3332L13.9999 19.3198L19.3333 24.6532L30.6666 11.9065L28.7866 10.0265L19.3333 20.6532L13.9999 15.3198L3.99992 25.3332L5.99992 27.3332Z" fill="currentColor" />
</svg>
