<svg viewBox="0 0 32 32" xmlns="http://www.w3.org/2000/svg">
<path clip-rule="evenodd" d="M19.7071 1.29289C20.0976 1.68342 20.0976 2.31658 19.7071 2.70711L16.4142 6L19.7071 9.29289C20.0976 9.68342 20.0976 10.3166 19.7071 10.7071C19.3166 11.0976 18.6834 11.0976 18.2929 10.7071L14.2929 6.70711C13.9024 6.31658 13.9024 5.68342 14.2929 5.29289L18.2929 1.29289C18.6834 0.902369 19.3166 0.902369 19.7071 1.29289ZM12.2304 21.2929C12.6209 20.9024 13.2541 20.9024 13.6446 21.2929L17.6446 25.2929C18.0351 25.6834 18.0351 26.3166 17.6446 26.7071L13.6446 30.7071C13.2541 31.0976 12.6209 31.0976 12.2304 30.7071C11.8399 30.3166 11.8399 29.6834 12.2304 29.2929L15.5233 26L12.2304 22.7071C11.8399 22.3166 11.8399 21.6834 12.2304 21.2929Z" />
<path clip-rule="evenodd" d="M7 4C5.89543 4 5 4.89543 5 6C5 7.10457 5.89543 8 7 8C8.10457 8 9 7.10457 9 6C9 4.89543 8.10457 4 7 4ZM3 6C3 3.79086 4.79086 2 7 2C9.20914 2 11 3.79086 11 6C11 8.20914 9.20914 10 7 10C4.79086 10 3 8.20914 3 6Z" />
<path clip-rule="evenodd" d="M25 24C23.8954 24 23 24.8954 23 26C23 27.1046 23.8954 28 25 28C26.1046 28 27 27.1046 27 26C27 24.8954 26.1046 24 25 24ZM21 26C21 23.7909 22.7909 22 25 22C27.2091 22 29 23.7909 29 26C29 28.2091 27.2091 30 25 30C22.7909 30 21 28.2091 21 26Z" />
<path clip-rule="evenodd" d="M15 6C15 5.44772 15.4477 5 16 5H21.25C22.5098 5 23.718 5.50044 24.6088 6.39124C25.4996 7.28204 26 8.49022 26 9.75V23C26 23.5523 25.5523 24 25 24C24.4477 24 24 23.5523 24 23V9.75C24 9.02065 23.7103 8.32118 23.1945 7.80546C22.6788 7.28973 21.9793 7 21.25 7H16C15.4477 7 15 6.55228 15 6ZM6.9375 8C7.48978 8 7.9375 8.44772 7.9375 9V22.25C7.9375 22.9793 8.22723 23.6788 8.74296 24.1945C9.25868 24.7103 9.95815 25 10.6875 25H15.9375C16.4898 25 16.9375 25.4477 16.9375 26C16.9375 26.5523 16.4898 27 15.9375 27H10.6875C9.42772 27 8.21954 26.4996 7.32874 25.6088C6.43794 24.718 5.9375 23.5098 5.9375 22.25V9C5.9375 8.44772 6.38522 8 6.9375 8Z" />
</svg>
