<svg viewBox="0 0 37 37" xmlns="http://www.w3.org/2000/svg">
<path d="M18.4957 29.6388C16.293 29.6396 14.1396 28.9869 12.3077 27.7634C10.4759 26.5399 9.04796 24.8005 8.20452 22.7652C7.36108 20.7299 7.14002 18.4901 7.5693 16.3292C7.99858 14.1682 9.05891 12.1831 10.6162 10.625C12.1735 9.0668 14.1578 8.00556 16.3181 7.57547C18.4784 7.14537 20.7177 7.36575 22.7528 8.20871C24.7879 9.05168 26.5274 10.4794 27.7512 12.3112C28.975 14.1431 29.6283 16.2968 29.6283 18.5C29.6286 21.4537 28.4559 24.2865 26.3682 26.3754C24.2805 28.4643 21.4487 29.6382 18.4957 29.6388ZM18.4957 10.3351C16.8809 10.3349 15.3022 10.8136 13.9594 11.7109C12.6167 12.6081 11.57 13.8834 10.952 15.3756C10.3339 16.8678 10.1721 18.5099 10.4871 20.0941C10.8021 21.6782 11.5796 23.1334 12.7215 24.2755C13.8634 25.4177 15.3182 26.1954 16.902 26.5105C18.4858 26.8255 20.1275 26.6637 21.6193 26.0455C23.1112 25.4273 24.3863 24.3804 25.2833 23.0373C26.1803 21.6942 26.6589 20.1152 26.6587 18.5C26.6587 17.4278 26.4475 16.366 26.0373 15.3754C25.6271 14.3848 25.0258 13.4847 24.2678 12.7266C23.5098 11.9684 22.6099 11.367 21.6195 10.9566C20.6292 10.5463 19.5677 10.3351 18.4957 10.3351Z" fill="currentColor"/>
<path d="M36.5208 21.3609L32.5045 22.6599C32.2158 23.634 31.8259 24.5751 31.341 25.4679L33.2625 29.2271C33.3288 29.3556 33.3526 29.5018 33.3305 29.6447C33.3084 29.7876 33.2416 29.9198 33.1397 30.0223L30.0165 33.1461C29.9138 33.2478 29.7817 33.3144 29.639 33.3364C29.4962 33.3585 29.3501 33.3349 29.2216 33.269L25.4632 31.347C24.5698 31.8318 23.6281 32.2214 22.6534 32.5096L21.3547 36.5269C21.3105 36.6644 21.2237 36.7844 21.1068 36.8694C20.99 36.9544 20.8492 37.0002 20.7048 37H16.2817C16.1372 37.0002 15.9964 36.9544 15.8796 36.8694C15.7628 36.7844 15.676 36.6644 15.6318 36.5269L14.3368 32.5096C13.3634 32.221 12.4229 31.8314 11.5306 31.347L7.77227 33.2715C7.64372 33.3374 7.49765 33.361 7.3549 33.3389C7.21215 33.3168 7.08002 33.2502 6.97735 33.1486L3.85419 30.0247C3.75225 29.9222 3.68544 29.79 3.66336 29.6472C3.64128 29.5043 3.66508 29.3581 3.73133 29.2296L5.65289 25.4704C5.168 24.5776 4.77804 23.6364 4.48939 22.6623L0.473019 21.3634C0.335594 21.3185 0.21585 21.2314 0.130897 21.1144C0.0459445 20.9975 0.000130702 20.8566 0 20.712V16.288C0.000201781 16.1435 0.0460637 16.0029 0.131025 15.8861C0.215986 15.7694 0.335692 15.6825 0.473019 15.6379L4.48939 14.3377C4.77782 13.3639 5.16779 12.4231 5.65289 11.5309L3.73133 7.77039C3.66518 7.64209 3.64143 7.4961 3.66351 7.35344C3.68559 7.21078 3.75235 7.0788 3.85419 6.97651L6.97735 3.85263C7.07982 3.75066 7.21197 3.68383 7.35481 3.66175C7.49765 3.63967 7.64381 3.66347 7.77227 3.72974L11.5306 5.65052C12.423 5.16698 13.3635 4.77817 14.3368 4.49043L15.6367 0.473125C15.6813 0.33577 15.7682 0.21603 15.8849 0.13105C16.0016 0.0460701 16.1423 0.000202179 16.2866 0H20.7097C20.8541 0.000202179 20.9947 0.0460701 21.1114 0.13105C21.2282 0.21603 21.315 0.33577 21.3596 0.473125L22.6534 4.49043C23.6272 4.77873 24.5682 5.16838 25.4608 5.65298L29.2191 3.7322C29.3476 3.66593 29.4937 3.64213 29.6366 3.66421C29.7794 3.68629 29.9116 3.75312 30.014 3.85509L33.1372 6.97897C33.239 7.08126 33.3058 7.21324 33.3279 7.3559C33.35 7.49856 33.3262 7.64455 33.2601 7.77285L31.3385 11.5333C31.8236 12.4256 32.2136 13.3663 32.502 14.3401L36.5184 15.6403C36.6569 15.6833 36.7782 15.7692 36.8648 15.8856C36.9513 16.002 36.9987 16.1429 37 16.288V20.712C36.9989 20.857 36.952 20.9978 36.8659 21.1144C36.7798 21.231 36.659 21.3173 36.5208 21.3609ZM18.4957 6.45669C16.1143 6.45669 13.7864 7.16302 11.8063 8.48635C9.8263 9.80969 8.28303 11.6906 7.37172 13.8912C6.4604 16.0918 6.22196 18.5134 6.68654 20.8495C7.15113 23.1857 8.29788 25.3316 9.98177 27.0159C11.6657 28.7002 13.8111 29.8472 16.1467 30.3119C18.4823 30.7766 20.9033 30.5381 23.1034 29.6266C25.3035 28.715 27.184 27.1714 28.507 25.1909C29.83 23.2104 30.5362 20.8819 30.5362 18.5C30.5362 16.9184 30.2248 15.3524 29.6197 13.8912C29.0146 12.4301 28.1277 11.1024 27.0096 9.98409C25.8916 8.86577 24.5642 7.97866 23.1034 7.37342C21.6426 6.76819 20.0769 6.45669 18.4957 6.45669Z" fill="currentColor"/>
</svg>
