<svg width="181" height="181" viewBox="0 0 181 181" fill="none" xmlns="http://www.w3.org/2000/svg">
<g clip-path="url(#clip0_3295_1375)">
<path d="M180.44 90.22C180.44 40.3929 140.047 0 90.22 0C40.3929 0 0 40.3929 0 90.22C0 140.047 40.3929 180.44 90.22 180.44C140.047 180.44 180.44 140.047 180.44 90.22Z" fill="white"/>
<path d="M90.11 95.46C105.894 95.46 118.69 82.6643 118.69 66.88C118.69 51.0957 105.894 38.3 90.11 38.3C74.3257 38.3 61.53 51.0957 61.53 66.88C61.53 82.6643 74.3257 95.46 90.11 95.46Z" fill="#C4F142"/>
<path d="M120.41 66.8801H59.8499C59.6215 66.8805 59.3954 66.8342 59.1855 66.7442C58.9756 66.6542 58.7862 66.5223 58.629 66.3566C58.4717 66.191 58.3499 65.995 58.271 65.7807C58.192 65.5664 58.1577 65.3382 58.1699 65.1101C58.4967 56.8486 62.0083 49.0342 67.9691 43.3046C73.9298 37.5749 81.8769 34.3748 90.1449 34.3748C98.4129 34.3748 106.36 37.5749 112.321 43.3046C118.281 49.0342 121.793 56.8486 122.12 65.1101C122.134 65.3411 122.1 65.5724 122.019 65.7895C121.939 66.0065 121.815 66.2045 121.654 66.371C121.493 66.5374 121.3 66.6686 121.085 66.7562C120.871 66.8439 120.641 66.8861 120.41 66.8801Z" fill="url(#paint0_linear_3295_1375)"/>
<path d="M126.59 141.29H53.64C52.9792 141.29 52.3257 141.151 51.7229 140.88C51.12 140.609 50.5816 140.214 50.143 139.719C49.7044 139.225 49.3757 138.643 49.1787 138.012C48.9817 137.381 48.9208 136.716 49 136.06C50.2793 126.059 55.1598 116.867 62.7279 110.206C70.296 103.544 80.0327 99.8691 90.115 99.8691C100.197 99.8691 109.934 103.544 117.502 110.206C125.07 116.867 129.951 126.059 131.23 136.06C131.309 136.716 131.248 137.381 131.051 138.012C130.854 138.643 130.526 139.225 130.087 139.719C129.648 140.214 129.11 140.609 128.507 140.88C127.904 141.151 127.251 141.29 126.59 141.29Z" fill="url(#paint1_linear_3295_1375)"/>
</g>
<defs>
<linearGradient id="paint0_linear_3295_1375" x1="70.4699" y1="33.3401" x2="108.32" y2="87.0101" gradientUnits="userSpaceOnUse">
<stop stop-color="#EEEEF0"/>
<stop offset="1" stop-color="#A4A9A6"/>
</linearGradient>
<linearGradient id="paint1_linear_3295_1375" x1="53.19" y1="93.5999" x2="190.48" y2="233.6" gradientUnits="userSpaceOnUse">
<stop stop-color="#EEEEF0"/>
<stop offset="1" stop-color="#A4A9A6"/>
</linearGradient>
<clipPath id="clip0_3295_1375">
<rect width="180.44" height="180.44" fill="white"/>
</clipPath>
</defs>
</svg>
