<svg width="182" height="181" viewBox="0 0 182 181" fill="none" xmlns="http://www.w3.org/2000/svg">
<g clip-path="url(#clip0_3295_1384)">
<path d="M181.32 90.22C181.32 40.3929 140.927 0 91.0999 0C41.2728 0 0.879883 40.3929 0.879883 90.22C0.879883 140.047 41.2728 180.44 91.0999 180.44C140.927 180.44 181.32 140.047 181.32 90.22Z" fill="white"/>
<path d="M109.67 42.83V51.97C109.67 53.4685 109.075 54.9056 108.015 55.9652C106.955 57.0247 105.518 57.62 104.02 57.62H54.2599C53.581 57.62 52.9298 57.8897 52.4497 58.3698C51.9696 58.8499 51.7 59.5011 51.7 60.18V83.18C51.7 83.859 51.9696 84.5101 52.4497 84.9902C52.9298 85.4703 53.581 85.74 54.2599 85.74H150.88C151.288 85.7371 151.685 85.6151 152.025 85.389C152.364 85.1629 152.629 84.8426 152.789 84.4674C152.948 84.0923 152.994 83.6787 152.922 83.2776C152.849 82.8765 152.661 82.5054 152.38 82.21L113.26 41.39C112.973 41.0872 112.602 40.8778 112.195 40.7886C111.787 40.6994 111.363 40.7347 110.976 40.89C110.589 41.0452 110.257 41.3132 110.024 41.6591C109.791 42.0051 109.668 42.413 109.67 42.83Z" fill="url(#paint0_linear_3295_1384)"/>
<path d="M69.9299 137.62V128.48C69.9299 126.982 70.5252 125.544 71.5848 124.485C72.6444 123.425 74.0815 122.83 75.58 122.83H125.34C126.015 122.83 126.664 122.563 127.143 122.087C127.623 121.612 127.895 120.965 127.9 120.29V97.29C127.9 96.611 127.63 95.9599 127.15 95.4798C126.67 94.9997 126.019 94.73 125.34 94.73H28.7199C28.3123 94.7302 27.9137 94.8501 27.5737 95.075C27.2336 95.2998 26.9672 95.6196 26.8074 95.9946C26.6476 96.3696 26.6015 96.7833 26.6748 97.1843C26.7482 97.5852 26.9377 97.9558 27.2199 98.25L66.3399 139.08C66.6299 139.379 67.0026 139.584 67.4102 139.67C67.8177 139.756 68.2415 139.717 68.6273 139.561C69.013 139.404 69.3432 139.135 69.5753 138.789C69.8074 138.444 69.9309 138.036 69.9299 137.62Z" fill="#C4F142"/>
</g>
<defs>
<linearGradient id="paint0_linear_3295_1384" x1="85.9999" y1="39.51" x2="133.91" y2="168.39" gradientUnits="userSpaceOnUse">
<stop stop-color="#EEEEF0"/>
<stop offset="1" stop-color="#A4A9A6"/>
</linearGradient>
<clipPath id="clip0_3295_1384">
<rect width="180.44" height="180.44" fill="white" transform="translate(0.879883)"/>
</clipPath>
</defs>
</svg>
