<svg width="181" height="181" viewBox="0 0 181 181" fill="none" xmlns="http://www.w3.org/2000/svg">
<g clip-path="url(#clip0_3295_1380)">
<path d="M180.88 90.22C180.88 40.3929 140.487 0 90.6599 0C40.8328 0 0.439941 40.3929 0.439941 90.22C0.439941 140.047 40.8328 180.44 90.6599 180.44C140.487 180.44 180.88 140.047 180.88 90.22Z" fill="white"/>
<path d="M108.05 71.8101H76.4899C75.0374 71.8101 73.8599 72.9876 73.8599 74.4401V106C73.8599 107.453 75.0374 108.63 76.4899 108.63H108.05C109.502 108.63 110.68 107.453 110.68 106V74.4401C110.68 72.9876 109.502 71.8101 108.05 71.8101Z" fill="#C4F142"/>
<path d="M147.94 106.61H135.2V73.84H147.94C148.47 73.84 148.979 73.6293 149.354 73.2543C149.729 72.8792 149.94 72.3705 149.94 71.84C149.94 71.3096 149.729 70.8009 149.354 70.4258C148.979 70.0508 148.47 69.84 147.94 69.84H135.2V55.84C135.2 53.5883 134.305 51.4289 132.713 49.8367C131.121 48.2445 128.962 47.35 126.71 47.35H112.71V34.55C112.71 34.0196 112.499 33.5109 112.124 33.1358C111.749 32.7608 111.24 32.55 110.71 32.55C110.179 32.55 109.671 32.7608 109.296 33.1358C108.921 33.5109 108.71 34.0196 108.71 34.55V47.29H75.8798V34.55C75.8798 34.0196 75.6691 33.5109 75.2941 33.1358C74.919 32.7608 74.4103 32.55 73.8798 32.55C73.3494 32.55 72.8407 32.7608 72.4656 33.1358C72.0906 33.5109 71.8798 34.0196 71.8798 34.55V47.29H57.8298C55.5781 47.29 53.4187 48.1845 51.8265 49.7767C50.2343 51.3689 49.3398 53.5283 49.3398 55.78V69.78H36.5898C36.0594 69.78 35.5507 69.9908 35.1756 70.3658C34.8005 70.7409 34.5898 71.2496 34.5898 71.78C34.5898 72.3105 34.8005 72.8192 35.1756 73.1943C35.5507 73.5693 36.0594 73.78 36.5898 73.78H49.3298V106.55H36.5898C36.0594 106.55 35.5507 106.761 35.1756 107.136C34.8005 107.511 34.5898 108.02 34.5898 108.55C34.5898 109.08 34.8005 109.589 35.1756 109.964C35.5507 110.339 36.0594 110.55 36.5898 110.55H49.3298V124.55C49.3298 126.802 50.2243 128.961 51.8165 130.553C53.4087 132.146 55.5681 133.04 57.8198 133.04H71.8198V145.78C71.8198 146.31 72.0306 146.819 72.4056 147.194C72.7807 147.569 73.2894 147.78 73.8198 147.78C74.3503 147.78 74.859 147.569 75.2341 147.194C75.6091 146.819 75.8198 146.31 75.8198 145.78V133.16H108.59V145.9C108.59 146.43 108.801 146.939 109.176 147.314C109.551 147.689 110.059 147.9 110.59 147.9C111.12 147.9 111.629 147.689 112.004 147.314C112.379 146.939 112.59 146.43 112.59 145.9V133.16H126.59C128.842 133.16 131.001 132.266 132.593 130.673C134.185 129.081 135.08 126.922 135.08 124.67V110.67H147.82C148.35 110.67 148.859 110.459 149.234 110.084C149.609 109.709 149.82 109.2 149.82 108.67C149.82 108.14 149.609 107.631 149.234 107.256C148.859 106.881 148.35 106.67 147.82 106.67L147.94 106.61ZM114.34 107.93C114.337 109.087 113.876 110.196 113.056 111.014C112.237 111.831 111.127 112.29 109.97 112.29H74.5598C73.9873 112.29 73.4203 112.177 72.8914 111.958C72.3624 111.739 71.8817 111.418 71.4769 111.013C71.072 110.608 70.7509 110.127 70.5317 109.599C70.3126 109.07 70.1998 108.503 70.1998 107.93V72.52C70.1998 71.3637 70.6592 70.2547 71.4769 69.4371C72.2945 68.6194 73.4035 68.16 74.5598 68.16H109.97C111.127 68.16 112.237 68.6191 113.056 69.4365C113.876 70.2538 114.337 71.3628 114.34 72.52V107.93Z" fill="url(#paint0_linear_3295_1380)"/>
</g>
<defs>
<linearGradient id="paint0_linear_3295_1380" x1="67.1098" y1="22.5501" x2="163.42" y2="281.63" gradientUnits="userSpaceOnUse">
<stop stop-color="#EEEEF0"/>
<stop offset="1" stop-color="#A4A9A6"/>
</linearGradient>
<clipPath id="clip0_3295_1380">
<rect width="180.44" height="180.44" fill="white" transform="translate(0.439941)"/>
</clipPath>
</defs>
</svg>
