<svg width="181" height="181" viewBox="0 0 181 181" fill="none" xmlns="http://www.w3.org/2000/svg">
<g clip-path="url(#clip0_3295_1388)">
<path d="M180.76 90.22C180.76 40.3929 140.367 0 90.5398 0C40.7127 0 0.319824 40.3929 0.319824 90.22C0.319824 140.047 40.7127 180.44 90.5398 180.44C140.367 180.44 180.76 140.047 180.76 90.22Z" fill="white"/>
<path d="M51.8599 121.61L63.08 65.2899L120.78 50.1699L121.15 116.32L51.8599 121.61ZM66.5099 68.4999L56.8099 117.22L117.16 112.62L116.84 55.3399L66.5099 68.4999Z" fill="url(#paint0_linear_3295_1388)"/>
<path d="M119.17 136.97C131.596 136.97 141.67 126.896 141.67 114.47C141.67 102.044 131.596 91.97 119.17 91.97C106.744 91.97 96.6699 102.044 96.6699 114.47C96.6699 126.896 106.744 136.97 119.17 136.97Z" fill="#C4F142"/>
<path d="M118.83 70.6501C128.716 70.6501 136.73 62.636 136.73 52.7501C136.73 42.8642 128.716 34.8501 118.83 34.8501C108.944 34.8501 100.93 42.8642 100.93 52.7501C100.93 62.636 108.944 70.6501 118.83 70.6501Z" fill="url(#paint1_linear_3295_1388)"/>
<path d="M54.3399 137.31C64.2258 137.31 72.2399 129.296 72.2399 119.41C72.2399 109.524 64.2258 101.51 54.3399 101.51C44.454 101.51 36.4399 109.524 36.4399 119.41C36.4399 129.296 44.454 137.31 54.3399 137.31Z" fill="url(#paint2_linear_3295_1388)"/>
<path d="M64.7998 79.6401C71.847 79.6401 77.5598 73.9273 77.5598 66.8801C77.5598 59.833 71.847 54.1201 64.7998 54.1201C57.7526 54.1201 52.0398 59.833 52.0398 66.8801C52.0398 73.9273 57.7526 79.6401 64.7998 79.6401Z" fill="url(#paint3_linear_3295_1388)"/>
</g>
<defs>
<linearGradient id="paint0_linear_3295_1388" x1="66.8699" y1="62.4299" x2="250.61" y2="283.82" gradientUnits="userSpaceOnUse">
<stop stop-color="#EEEEF0"/>
<stop offset="1" stop-color="#A4A9A6"/>
</linearGradient>
<linearGradient id="paint1_linear_3295_1388" x1="161.87" y1="139.91" x2="80.0399" y2="-25.7999" gradientUnits="userSpaceOnUse">
<stop stop-color="#EEEEF0"/>
<stop offset="1" stop-color="#A4A9A6"/>
</linearGradient>
<linearGradient id="paint2_linear_3295_1388" x1="80.0499" y1="171.47" x2="-1.78005" y2="5.76001" gradientUnits="userSpaceOnUse">
<stop stop-color="#EEEEF0"/>
<stop offset="1" stop-color="#A4A9A6"/>
</linearGradient>
<linearGradient id="paint3_linear_3295_1388" x1="73.8798" y1="85.2701" x2="15.5598" y2="-32.8299" gradientUnits="userSpaceOnUse">
<stop stop-color="#EEEEF0"/>
<stop offset="1" stop-color="#A4A9A6"/>
</linearGradient>
<clipPath id="clip0_3295_1388">
<rect width="180.44" height="180.44" fill="white" transform="translate(0.319824)"/>
</clipPath>
</defs>
</svg>
