<svg preserveAspectRatio="none" width="100%" height="100%" overflow="visible" style="display: block;" viewBox="0 0 40 40" fill="none" xmlns="http://www.w3.org/2000/svg">
<g id="Frame">
<path id="Vector" d="M31.4844 24.6797C31.5 24.5625 31.5078 24.4922 31.5078 24.4219C31.5078 19.4453 31.5 14.4609 31.5 9.48438C31.5 7.66406 31.4922 5.85156 31.4844 4.03125C31.4844 3.42969 31.5312 3.53906 30.9844 3.51562H16.3672C14.4375 3.51562 12.5078 3.52344 10.5781 3.52344C10.5078 3.52344 10.4453 3.54687 10.3359 3.5625C10.4062 3.64062 10.4375 3.6875 10.4844 3.73437C11.4062 4.63281 12.3203 5.53125 13.2422 6.42969C14.0078 7.17969 14.7578 7.9375 15.5312 8.67969C15.6328 8.78125 15.7969 8.875 15.9297 8.875C16.7266 8.89062 17.5234 8.875 18.3203 8.875H25.9844C26.2969 8.875 26.3125 8.89062 26.3125 9.19531C26.3125 12.4922 26.3125 15.7891 26.2969 19.0859C26.2969 19.3828 26.3672 19.5781 26.5781 19.7891C28.1641 21.3594 29.7344 22.9453 31.3125 24.5312C31.3437 24.5781 31.3984 24.6094 31.4844 24.6797ZM25.7031 19.5H16.0391C15.75 19.5 15.7422 19.4844 15.7422 19.1875C15.7422 15.8828 15.7422 12.5703 15.7344 9.26562C15.7344 9.19531 15.7031 9.125 15.6875 9.0625C15.625 9.09375 15.5547 9.11719 15.5078 9.16406C14.9687 9.6875 14.4297 10.2188 13.8906 10.7422C12.8281 11.7656 11.7734 12.8047 10.6875 13.8047C10.3906 14.0781 10.2891 14.3594 10.2891 14.75C10.3047 17.9766 10.2969 21.2031 10.2969 24.4375C10.2969 24.7344 10.3125 24.7422 10.5938 24.7422H20.9297C21.0859 24.7422 21.2109 24.7031 21.3281 24.5859C21.9687 23.9219 22.6172 23.2578 23.2656 22.5938L25.6953 20.1172C25.8359 19.9688 25.9844 19.8281 26.1172 19.6797C26.1484 19.6484 26.1562 19.5938 26.1719 19.5547C26.125 19.5391 26.0859 19.5078 26.0391 19.5078C25.9297 19.5 25.8125 19.5 25.7031 19.5ZM25.7812 29.1172C25.2422 29.1172 24.7031 29.125 24.1641 29.1172C23.9844 29.1172 23.8672 29.1719 23.7578 29.3203C22.8828 30.5156 21.9922 31.7031 21.1094 32.8984C20.9766 33.0859 20.9375 33.0859 20.7969 32.8984C19.8672 31.6953 18.9375 30.4922 18.0156 29.2812C17.9297 29.1641 17.8281 29.1172 17.6875 29.1172C17.0781 29.125 16.4766 29.125 15.8672 29.1172C15.6953 29.1172 15.6328 29.1719 15.6328 29.3516C15.6328 32.4219 15.6328 35.4844 15.625 38.5547C15.625 38.7969 15.6328 38.8047 15.875 38.8047H17.875C18.1875 38.8047 18.2031 38.7969 18.2031 38.4844V33.2891V33.0391C18.2344 33.0234 18.2422 33 18.2656 32.9844C18.2891 33.0391 18.3281 33.1016 18.3672 33.1484C18.5937 33.4375 18.8281 33.7266 19.0547 34.0234L20.8125 36.2734C20.9062 36.3984 20.9766 36.4141 21.0859 36.2812C21.8516 35.3281 22.625 34.375 23.3984 33.4297C23.5 33.3047 23.6016 33.1953 23.7031 33.0781L23.7734 33.1016V33.4609C23.7734 35.1641 23.7656 36.8594 23.7656 38.5625C23.7656 38.8125 23.7656 38.8203 24.0234 38.8203H25.8594C26.1328 38.8203 26.1484 38.8047 26.1484 38.5391V35.7344V29.5C26.1562 29.1172 26.1562 29.1172 25.7812 29.1172ZM37.5 32.7109C37.2656 31.4141 36.5703 30.4219 35.4297 29.7578C34.7344 29.3516 33.9844 29.1094 33.1562 29.1172C31.5625 29.1328 29.9687 29.125 28.3672 29.125C28.1016 29.125 28.0937 29.1328 28.0937 29.3906V38.5391C28.0937 38.8047 28.0937 38.8125 28.3516 38.8125H33.3437C33.6094 38.8125 33.875 38.7969 34.1328 38.7422C35.4922 38.4844 36.5078 37.75 37.1016 36.4922C37.6719 35.2813 37.7344 34 37.5 32.7109ZM34.6094 35.6797C34.1797 36.4063 33.5312 36.8125 32.6875 36.8594C32.0937 36.8906 31.4922 36.8594 30.8906 36.8594C30.7812 36.8594 30.7031 36.8359 30.7031 36.6953V33.9922H30.7109V31.3047C30.7109 31.1484 30.7734 31.0938 30.9141 31.0938C31.5469 31.0938 32.1797 31.0625 32.8047 31.1094C33.3516 31.1484 33.8047 31.4531 34.1953 31.8281C34.7187 32.3359 34.9531 32.9688 34.9922 33.6875C35.0234 34.3828 34.9687 35.0625 34.6094 35.6797ZM13.9922 36.0469C13.5781 34.9766 13.1641 33.9141 12.7578 32.8437C12.3047 31.6562 11.8437 30.4688 11.3984 29.2734C11.3437 29.1328 11.2578 29.0937 11.1172 29.0937C10.1328 29.1016 9.14844 29.1016 8.17187 29.0937C8.00781 29.0937 7.92969 29.1484 7.875 29.3047C7.46875 30.375 7.0625 31.4453 6.64844 32.5078C5.85937 34.5469 5.07031 36.5937 4.28125 38.6328C4.22656 38.7656 4.25781 38.8125 4.39844 38.8125H7.19531C7.32812 38.8125 7.39062 38.7656 7.42969 38.6328C7.54687 38.2187 7.6875 37.8047 7.8125 37.3906C7.85156 37.2656 7.91406 37.2109 8.05469 37.2109H11.1328C11.2656 37.2109 11.3281 37.2656 11.3672 37.3906C11.4844 37.7969 11.6172 38.1953 11.7344 38.5938C11.7812 38.75 11.8516 38.8125 12.0234 38.8125C12.4844 38.8047 12.9531 38.8125 13.4141 38.8125H14.8437C14.9766 38.8125 15.0469 38.7891 14.9844 38.6328C14.6484 37.7656 14.3203 36.9062 13.9922 36.0469ZM10.4844 35.0781H8.72656C8.59375 35.0781 8.55469 35.0313 8.59375 34.8984L9.53125 31.8984C9.53906 31.8672 9.55469 31.8438 9.59375 31.7656C9.64062 31.8672 9.66406 31.9219 9.67969 31.9766C9.98437 32.9453 10.2891 33.9219 10.5938 34.8906C10.6328 35 10.6406 35.0781 10.4844 35.0781Z" fill="var(--fill-0, #D81E06)"/>
</g>
</svg>
