<svg preserveAspectRatio="none" width="100%" height="100%" overflow="visible" style="display: block;" viewBox="0 0 40 40" fill="none" xmlns="http://www.w3.org/2000/svg">
<g id="Frame" clip-path="url(#clip0_271_168)">
<path id="Vector" d="M11.7833 18V24.4617H9.72833V16.34L13.9733 16.3433C15.7733 16.3433 16.3883 17.6167 16.3883 18.77V24.4617H14.3383V18.7817C14.3383 18.2967 14.09 18 13.4833 18H11.7833ZM25.765 17.9033C25.0617 17.9033 24.5183 18.2633 24.29 18.7533C24.162 19.0303 24.095 19.3315 24.0933 19.6367H27.2567C27.2183 18.7533 26.8183 17.9033 25.765 17.9033ZM24.0933 21.0367C24.0933 22.085 24.7483 22.8617 25.9167 22.8617C26.8233 22.8617 27.275 22.6117 27.8017 22.085L29.0717 23.3C28.26 24.1017 27.4033 24.5883 25.9017 24.5883C23.935 24.5883 22.0517 23.5167 22.0517 20.3883C22.0517 17.7133 23.6933 16.2017 25.8533 16.2017C28.045 16.2017 29.3117 17.9733 29.3117 20.2933V21.0317H24.0933V21.0367ZM20.3133 24.4483C18.64 24.4483 17.9267 23.2833 17.9267 22.13V14.13H19.98V16.3417H21.5267V18.0017H19.9783V22.0017C19.9783 22.475 20.2033 22.735 20.6933 22.735H21.5267V24.4467H20.3133V24.4483ZM7.89833 15.2183H5.82833V13.2517H7.89833V15.2183ZM7.90333 24.5433C6.35333 24.3967 5.82667 23.4583 5.82667 22.3683V16.3433H7.9V24.55L7.90333 24.5433ZM32.5783 24.37C31.03 24.22 30.5067 23.2833 30.5067 22.1983V12.9733H32.5783V24.3733V24.37ZM39.8233 14.3067C37.9483 5.15167 20.17 4.57167 8.71667 11.545V12.315C20.1583 6.435 36.39 6.46833 37.8683 14.8983C38.3617 17.69 36.7917 20.595 33.9867 22.2683V24.4533C37.3617 23.2167 40.8283 19.2083 39.8233 14.3067ZM18.9967 30.3233C11.0933 31.0533 2.85333 29.905 1.70167 23.7283C1.14 20.6833 2.53 17.4533 4.365 15.45V14.3783C1.05333 17.2833 -0.743333 20.9617 0.291667 25.3067C1.61167 30.8817 8.68333 34.0383 19.4733 32.9883C23.745 32.5733 29.3333 31.1983 33.2183 29.065V26.0383C29.6917 28.14 23.8567 29.875 18.9967 30.3233Z" fill="var(--fill-0, black)"/>
<path id="Vector_2" d="M34.9733 13.5833C34.9733 13.4833 34.9117 13.4517 34.78 13.4517H34.6517V13.735L34.78 13.7383C34.9117 13.7383 34.9733 13.6967 34.9733 13.5983V13.5833ZM35.1733 14.2883H35.0217C35.0067 14.2883 34.9917 14.2817 34.9867 14.2683L34.7783 13.9133C34.7733 13.905 34.7567 13.8967 34.7467 13.8967H34.6533V14.25C34.6533 14.27 34.6383 14.2917 34.615 14.2917H34.4783C34.46 14.2917 34.4433 14.2683 34.4433 14.25V13.3617C34.4433 13.3133 34.4633 13.2867 34.5067 13.2817C34.59 13.2733 34.675 13.2717 34.76 13.2717C35.0133 13.2717 35.17 13.3483 35.17 13.585V13.6017C35.17 13.7517 35.0933 13.8267 34.98 13.865L35.1967 14.23C35.1967 14.24 35.205 14.25 35.205 14.26C35.2083 14.2717 35.1983 14.2883 35.1733 14.2883ZM34.81 13.1067C34.7205 13.107 34.6319 13.125 34.5493 13.1595C34.4668 13.1941 34.3918 13.2446 34.3287 13.3081C34.2014 13.4364 34.1302 13.61 34.1308 13.7908C34.1315 13.9716 34.204 14.1447 34.3323 14.2721C34.4606 14.3995 34.6342 14.4707 34.815 14.47C34.9948 14.4696 35.1672 14.3983 35.2948 14.2716C35.4224 14.145 35.4949 13.9731 35.4967 13.7933C35.4954 13.6116 35.4226 13.4377 35.2941 13.3092C35.1656 13.1807 34.9917 13.108 34.81 13.1067ZM34.81 14.6183C34.5912 14.6186 34.3813 14.5318 34.2264 14.3773C34.0715 14.2227 33.9844 14.013 33.9842 13.7942C33.9839 13.5754 34.0707 13.3654 34.2252 13.2106C34.3798 13.0557 34.5895 12.9686 34.8083 12.9683H34.81C35.0197 12.9817 35.2165 13.0744 35.3603 13.2276C35.5042 13.3809 35.5842 13.5832 35.5842 13.7933C35.5842 14.0035 35.5042 14.2058 35.3603 14.359C35.2165 14.5123 35.0197 14.605 34.81 14.6183Z" fill="var(--fill-0, black)"/>
</g>
<defs>
<clipPath id="clip0_271_168">
<rect width="40" height="40" fill="white"/>
</clipPath>
</defs>
</svg>
