<svg preserveAspectRatio="none" width="100%" height="100%" overflow="visible" style="display: block;" viewBox="0 0 26 14" fill="none" xmlns="http://www.w3.org/2000/svg">
<g id="vs">
<path id="Vector" d="M19.3031 13.128C18.2311 13.128 17.1991 12.992 16.2071 12.72C15.2311 12.432 14.4551 12.088 13.8791 11.688L15.0311 9.40796C15.6071 9.77596 16.2951 10.08 17.0951 10.32C17.8951 10.56 18.6951 10.68 19.4951 10.68C20.4391 10.68 21.1191 10.552 21.5351 10.296C21.9671 10.04 22.1831 9.69596 22.1831 9.26396C22.1831 8.91196 22.0391 8.64796 21.7511 8.47196C21.4631 8.27996 21.0871 8.13596 20.6231 8.03996C20.1591 7.94396 19.6391 7.85596 19.0631 7.77596C18.5031 7.69596 17.9351 7.59196 17.3591 7.46396C16.7991 7.31996 16.2871 7.11996 15.8231 6.86396C15.3591 6.59196 14.9831 6.23196 14.6951 5.78396C14.4071 5.33596 14.2631 4.74396 14.2631 4.00796C14.2631 3.19196 14.4951 2.48796 14.9591 1.89596C15.4231 1.28796 16.0711 0.82396 16.9031 0.50396C17.7511 0.16796 18.7511 -4.00543e-05 19.9031 -4.00543e-05C20.7671 -4.00543e-05 21.6391 0.0959606 22.5191 0.287961C23.3991 0.47996 24.1271 0.75196 24.7031 1.10396L23.5511 3.38396C22.9431 3.01596 22.3271 2.76796 21.7031 2.63996C21.0951 2.49596 20.4871 2.42396 19.8791 2.42396C18.9671 2.42396 18.2871 2.55996 17.8391 2.83196C17.4071 3.10396 17.1911 3.44796 17.1911 3.86396C17.1911 4.24796 17.3351 4.53596 17.6231 4.72796C17.9111 4.91996 18.2871 5.07196 18.7511 5.18396C19.2151 5.29596 19.7271 5.39196 20.2871 5.47196C20.8631 5.53596 21.4311 5.63996 21.9911 5.78396C22.5511 5.92796 23.0631 6.12796 23.5271 6.38396C24.0071 6.62396 24.3911 6.96796 24.6791 7.41596C24.9671 7.86396 25.1111 8.44796 25.1111 9.16796C25.1111 9.96796 24.8711 10.664 24.3911 11.256C23.9271 11.848 23.2631 12.312 22.3991 12.648C21.5351 12.968 20.5031 13.128 19.3031 13.128Z" fill="var(--fill-0, white)"/>
<path id="Vector_2" d="M5.49612 12.96L0.000117302 0.143959H3.12012L7.84812 11.448H6.31212L11.2081 0.143959H14.0881L8.59212 12.96H5.49612Z" fill="var(--fill-0, white)"/>
</g>
</svg>
