<svg preserveAspectRatio="none" width="100%" height="100%" overflow="visible" style="display: block;" viewBox="0 0 32 32" fill="none" xmlns="http://www.w3.org/2000/svg">
<g id="icon">
<path d="M0 16C0 7.16344 7.16344 0 16 0V0C24.8366 0 32 7.16344 32 16V16C32 24.8366 24.8366 32 16 32V32C7.16344 32 0 24.8366 0 16V16Z" fill="var(--fill-0, white)"/>
<path id="Vector" d="M24.7903 8.13897C24.707 8.07096 24.6056 8.02573 24.4971 8.00819C24.3885 7.99064 24.277 8.00143 24.1745 8.03939L6.67138 14.5129C6.45849 14.5917 6.27837 14.7335 6.15807 14.9173C6.03777 15.101 5.98379 15.3166 6.00423 15.5318C6.02468 15.747 6.11844 15.9501 6.27144 16.1107C6.42444 16.2712 6.62842 16.3805 6.85275 16.4221L11.5269 17.2898V22.2027C11.527 22.4304 11.5991 22.653 11.734 22.8417C11.8689 23.0305 12.0604 23.1768 12.2839 23.262C12.5074 23.3472 12.7527 23.3673 12.9884 23.3198C13.2241 23.2722 13.4394 23.1592 13.6066 22.9952L15.9075 20.74L19.4986 23.7151C19.7178 23.8985 20.0004 23.9998 20.2932 24C20.421 23.9997 20.548 23.9807 20.6697 23.9437C20.8692 23.884 21.0487 23.776 21.1902 23.6303C21.3318 23.4847 21.4304 23.3065 21.4764 23.1136L24.9846 8.69973C25.0093 8.59839 25.0042 8.49262 24.97 8.39381C24.9357 8.29499 24.8736 8.20689 24.7903 8.13897ZM7.04017 15.4581C7.03686 15.4497 7.03686 15.4404 7.04017 15.432C7.04407 15.4292 7.04845 15.427 7.05312 15.4255L20.8468 10.3224L11.9251 16.3625L7.05312 15.4614L7.04017 15.4581ZM12.8604 22.3145C12.8366 22.3378 12.806 22.3539 12.7725 22.3608C12.7389 22.3676 12.704 22.3649 12.6721 22.3529C12.6403 22.3409 12.6129 22.3202 12.5935 22.2934C12.5741 22.2667 12.5636 22.2351 12.5633 22.2027V17.9672L15.1276 20.0894L12.8604 22.3145ZM20.4668 22.8924C20.4604 22.92 20.4463 22.9454 20.4259 22.9661C20.4056 22.9868 20.3797 23.0019 20.351 23.0099C20.3218 23.0196 20.2903 23.0217 20.2599 23.016C20.2295 23.0102 20.2013 22.9968 20.1783 22.9773L12.8777 16.9249L23.7047 9.59187L20.4668 22.8924Z" fill="var(--fill-0, #1E2119)"/>
</g>
</svg>
