<svg preserveAspectRatio="none" width="100%" height="100%" overflow="visible" style="display: block;" viewBox="0 0 40 40" fill="none" xmlns="http://www.w3.org/2000/svg">
<g id="Frame" clip-path="url(#clip0_271_172)">
<path id="Vector" d="M39.7236 33.6674C39.7236 34.0961 39.4086 34.3842 39.0354 34.3842V34.3814C38.6524 34.3842 38.3425 34.0961 38.3425 33.6669C38.3425 33.2381 38.6518 32.9512 39.0354 32.9512C39.4086 32.9512 39.7236 33.2381 39.7236 33.6669V33.6674ZM40.0025 33.6674C40.0025 33.0781 39.5452 32.7357 39.0354 32.7357C38.522 32.7357 38.0647 33.0781 38.0647 33.6674C38.0647 34.2556 38.522 34.5992 39.0354 34.5992C39.5452 34.5992 40.0025 34.2556 40.0025 33.6674ZM38.8747 33.7457H38.9788L39.2188 34.167H39.4818L39.216 33.728C39.3532 33.7183 39.4664 33.6531 39.4664 33.4679C39.4664 33.2381 39.308 33.1644 39.0399 33.1644H38.6512V34.167H38.8747V33.7457ZM38.8747 33.576V33.3348H39.0302C39.1148 33.3348 39.2297 33.3416 39.2297 33.4445C39.2297 33.5565 39.1703 33.576 39.0708 33.576H38.8747ZM33.4884 28.5366L34.6945 31.836H32.2451L33.4884 28.5366ZM32.1965 27.2516L29.4173 34.2939H31.3796L31.8198 33.0495H35.1089L35.525 34.2939H37.6555L34.8551 27.251L32.1971 27.2516H32.1965ZM26.6169 34.2968H28.6079V27.2499L26.6163 27.2493V34.2962L26.6169 34.2968ZM12.7929 27.2481L11.1312 32.834L9.53977 27.2493L7.39162 27.2487L9.66438 34.2962H12.5328L14.8244 27.2481H12.7929ZM20.8413 28.7829H21.6975C22.9391 28.7829 23.7422 29.3403 23.7422 30.787C23.7422 32.2338 22.9391 32.7911 21.6975 32.7911H20.8413V28.7829ZM18.8669 27.2487V34.2962H22.0948C23.8154 34.2962 24.3767 34.0104 24.9838 33.369C25.4125 32.9186 25.6903 31.9303 25.6903 30.8499C25.6903 29.8587 25.456 28.9756 25.0461 28.4251C24.3087 27.4413 23.2461 27.2487 21.6604 27.2487H18.8669ZM0.00571685 27.2396V34.2962H2.01382V28.9373L3.56977 28.9379C4.08537 28.9379 4.45235 29.0665 4.70043 29.3311C5.01482 29.6667 5.14344 30.2074 5.14344 31.1975V34.2956H7.08923V30.3972C7.08923 27.614 5.31549 27.239 3.58006 27.239H0.00571685V27.2396ZM15.6635 27.2493L15.6641 34.2968H17.6545V27.2481H15.6635V27.2493Z" fill="var(--fill-0, black)"/>
<path id="Vector_2" d="M5.35665 13.2172C5.35665 13.2172 7.91751 9.43875 13.0312 9.04776V7.67587C7.36818 8.13145 2.46254 12.9291 2.46254 12.9291C2.46254 12.9291 5.24061 20.9597 13.0318 21.6949V20.2378C7.31388 19.5181 5.35608 13.2172 5.35608 13.2172H5.35665ZM13.0312 17.3391V18.6738C8.71035 17.9033 7.51109 13.4121 7.51109 13.4121C7.51109 13.4121 9.58607 11.1142 13.0312 10.7409V12.2054L13.0249 12.2048C11.2163 11.9876 9.80328 13.6767 9.80328 13.6767C9.80328 13.6767 10.5955 16.5211 13.0312 17.3391ZM13.0312 5.14817V7.67645C13.1976 7.66387 13.3639 7.65358 13.5308 7.64786C19.9701 7.43065 24.1658 12.9285 24.1658 12.9285C24.1658 12.9285 19.347 18.7876 14.3265 18.7876C13.8922 18.7876 13.4588 18.7493 13.0312 18.6733V20.2372C13.3891 20.283 13.7497 20.3064 14.1104 20.307C18.7823 20.307 22.1606 17.921 25.4319 15.0972C25.9744 15.5316 28.1952 16.5886 28.6513 17.051C25.5411 19.6553 18.2918 21.7543 14.1819 21.7543C13.7858 21.7543 13.4051 21.7303 13.0312 21.6943V23.8916H30.7886V5.14817H13.0312ZM13.0312 10.7409V9.04776C13.1958 9.03633 13.3616 9.02718 13.5308 9.02204C18.1615 8.87628 21.1991 13.0005 21.1991 13.0005C21.1991 13.0005 17.918 17.558 14.4003 17.558C13.8938 17.558 13.4399 17.4769 13.0312 17.3391V12.2054C14.8341 12.4226 15.1965 13.2194 16.2803 15.0258L18.6908 12.9937C18.6908 12.9937 16.9314 10.686 13.9652 10.686C13.6429 10.686 13.3342 10.7089 13.0312 10.7409Z" fill="var(--fill-0, #77B900)"/>
</g>
<defs>
<clipPath id="clip0_271_172">
<rect width="40" height="40" fill="white"/>
</clipPath>
</defs>
</svg>
