<svg preserveAspectRatio="none" width="100%" height="100%" overflow="visible" style="display: block;" viewBox="0 0 32 32" fill="none" xmlns="http://www.w3.org/2000/svg">
<g id="icon">
<path d="M0 16C0 7.16344 7.16344 0 16 0V0C24.8366 0 32 7.16344 32 16V16C32 24.8366 24.8366 32 16 32V32C7.16344 32 0 24.8366 0 16V16Z" fill="var(--fill-0, white)"/>
<path id="Vector" d="M22.9313 10.1613C21.6344 9.61478 20.266 9.22469 18.8601 9.0008C18.8473 8.99883 18.8343 9.00053 18.8226 9.00567C18.811 9.01081 18.8014 9.01913 18.7951 9.0295C18.6188 9.31647 18.4238 9.69184 18.2876 9.98571C16.7721 9.7745 15.2306 9.7745 13.7151 9.98571C13.5631 9.65835 13.3912 9.3391 13.2001 9.0295C13.1937 9.01924 13.1841 9.01102 13.1725 9.00589C13.1609 9.00077 13.1479 8.99899 13.1351 9.0008C11.7289 9.22349 10.3602 9.61378 9.06393 10.1613C9.05284 10.1652 9.04356 10.1725 9.03768 10.182C6.44521 13.7394 5.73396 17.2095 6.08271 20.6361C6.08396 20.6521 6.09521 20.6682 6.10896 20.6786C7.6186 21.7055 9.30717 22.4896 11.1027 22.9973C11.1153 23.001 11.129 23.0009 11.1415 22.997C11.1541 22.993 11.165 22.9855 11.1727 22.9755C11.5577 22.4934 11.9001 21.9849 12.1951 21.4499C12.2013 21.4389 12.2034 21.4264 12.2011 21.4142C12.1989 21.402 12.1924 21.3908 12.1826 21.3822C12.1762 21.3766 12.1685 21.3723 12.1601 21.3696C11.6216 21.1795 11.1 20.9512 10.6002 20.6866C10.5862 20.6793 10.5758 20.6674 10.5712 20.6533C10.5665 20.6392 10.5679 20.624 10.5752 20.6108C10.5794 20.6023 10.5858 20.5948 10.5939 20.589C10.6989 20.5167 10.8039 20.4409 10.9039 20.3652C10.9127 20.3586 10.9233 20.3545 10.9346 20.353C10.9458 20.3516 10.9572 20.353 10.9677 20.3571C14.2414 21.73 17.7851 21.73 21.0188 20.3571C21.0296 20.3528 21.0415 20.3513 21.0531 20.3527C21.0648 20.3541 21.0758 20.3584 21.0851 20.3652C21.1851 20.4409 21.2901 20.5167 21.395 20.589C21.4036 20.5947 21.4104 20.6023 21.4149 20.611C21.4195 20.6197 21.4216 20.6294 21.4211 20.639C21.4206 20.6487 21.4175 20.6581 21.4121 20.6664C21.4067 20.6747 21.3991 20.6816 21.39 20.6866C20.8913 20.9536 20.3691 21.1817 19.8288 21.3684C19.8202 21.3713 19.8124 21.3759 19.8059 21.3818C19.7994 21.3878 19.7944 21.395 19.7913 21.4029C19.7884 21.4106 19.7873 21.4187 19.7879 21.4268C19.7886 21.4349 19.791 21.4428 19.7951 21.4499C20.0951 21.9837 20.4388 22.4934 20.8163 22.9755C20.8239 22.9855 20.8348 22.993 20.8474 22.997C20.86 23.0009 20.8736 23.001 20.8863 22.9973C22.6848 22.4911 24.3761 21.707 25.8875 20.6786C25.8951 20.6737 25.9014 20.6674 25.9059 20.6601C25.9105 20.6527 25.9131 20.6445 25.9138 20.6361C26.3312 16.6746 25.215 13.2332 22.9563 10.1832C22.954 10.1781 22.9506 10.1736 22.9463 10.1698C22.942 10.1661 22.9369 10.1632 22.9313 10.1613ZM12.6839 18.5492C11.6977 18.5492 10.8864 17.7181 10.8864 16.6987C10.8864 15.6782 11.6827 14.8471 12.6839 14.8471C13.6926 14.8471 14.4964 15.6851 14.4814 16.6987C14.4814 17.7181 13.6851 18.5492 12.6839 18.5492ZM19.3288 18.5492C18.3438 18.5492 17.5313 17.7181 17.5313 16.6987C17.5313 15.6782 18.3276 14.8471 19.3288 14.8471C20.3376 14.8471 21.1426 15.6851 21.1263 16.6987C21.1263 17.7181 20.3376 18.5492 19.3288 18.5492Z" fill="var(--fill-0, #1E2119)"/>
</g>
</svg>
