<svg preserveAspectRatio="none" width="100%" height="100%" overflow="visible" style="display: block;" viewBox="0 0 140 31" fill="none" xmlns="http://www.w3.org/2000/svg">
<g id="Group">
<path id="Vector" d="M37.4132 12.333C36.4802 11.706 34.0312 11.437 32.2502 11.918C32.1532 10.144 31.2382 8.648 29.5652 7.345L28.9462 6.929L28.5322 7.553C27.7212 8.785 27.3792 10.426 27.5002 11.919C27.5952 12.839 27.9152 13.872 28.5322 14.622C26.2142 15.967 24.0772 15.661 14.6132 15.661H0.0031723C-0.0388277 17.798 0.305172 21.909 2.91817 25.254C3.20717 25.624 3.52217 25.981 3.86617 26.326C5.99217 28.454 9.20217 30.015 14.0042 30.019C21.3292 30.026 27.6052 26.066 31.4232 16.492C32.6802 16.512 35.9952 16.717 37.6182 13.581C37.6572 13.529 38.0312 12.75 38.0312 12.75L37.4132 12.335V12.333ZM9.53817 10.38H5.43017V14.488H9.53817V10.38ZM14.8462 10.38H10.7382V14.488H14.8462V10.38ZM20.1542 10.38H16.0462V14.488H20.1542V10.38ZM25.4622 10.38H21.3542V14.488H25.4622V10.38ZM4.23017 10.38H0.122172V14.488H4.23017V10.38ZM9.53817 5.19H5.43017V9.298H9.53817V5.19ZM14.8462 5.19H10.7382V9.298H14.8462V5.19ZM20.1542 5.19H16.0462V9.298H20.1542V5.19ZM20.1542 0H16.0462V4.109H20.1542V0Z" fill="var(--fill-0, #1E2119)"/>
<path id="Vector_2" d="M50.2972 25.774C46.5732 25.774 43.5592 22.874 43.5592 18.097C43.5592 13.32 46.6012 10.449 50.3262 10.449C53.4262 10.449 54.8762 12.326 55.1312 12.781V4.536H59.7372V25.462H55.1872V23.301C54.9032 23.785 53.4242 25.774 50.2972 25.774ZM51.7192 14.373C49.5862 14.373 48.2222 15.966 48.2222 18.097C48.2222 20.229 49.5862 21.821 51.7192 21.821C53.8512 21.821 55.1872 20.258 55.1872 18.097C55.1872 15.937 53.8232 14.373 51.7192 14.373Z" fill="var(--fill-0, #1E2119)"/>
<path id="Vector_3" d="M77.5642 18.097C77.5642 22.647 74.0962 25.831 69.4902 25.831C64.8842 25.831 61.4152 22.647 61.4152 18.097C61.4152 13.548 64.8562 10.363 69.4902 10.363C74.1232 10.363 77.5642 13.52 77.5642 18.097ZM72.9292 18.097C72.9292 15.994 71.5652 14.373 69.4892 14.373C67.4122 14.373 66.0202 15.994 66.0202 18.097C66.0202 20.201 67.4132 21.821 69.4892 21.821C71.5642 21.821 72.9292 20.201 72.9292 18.097Z" fill="var(--fill-0, #1E2119)"/>
<path id="Vector_4" d="M86.1502 14.373C84.2452 14.373 82.9942 15.994 82.9942 18.097C82.9942 20.201 84.2452 21.851 86.1792 21.851C88.1122 21.851 88.7942 20.685 88.9652 20.344H93.4012C93.2302 22.391 91.2682 25.831 86.0652 25.831C81.7152 25.831 78.3602 22.789 78.3602 18.097C78.3602 13.405 81.7152 10.363 86.0082 10.363C91.2112 10.363 93.1742 13.747 93.4012 15.879H88.9082C88.6802 15.482 87.9412 14.373 86.1502 14.373Z" fill="var(--fill-0, #1E2119)"/>
<path id="Vector_5" d="M94.9072 4.536H99.5122V16.506L105.398 10.734H111.198L104.147 17.529L111.567 25.462H105.569L99.5122 18.894V25.462H94.9072V4.536Z" fill="var(--fill-0, #1E2119)"/>
<path id="Vector_6" d="M126.182 18.183V18.98H114.98C115.207 20.828 116.6 22.221 118.619 22.221C120.41 22.221 121.263 21.397 121.461 21.084H126.039C125.812 22.847 123.707 25.832 118.619 25.832C113.531 25.832 110.43 22.591 110.43 18.098C110.43 13.606 113.671 10.364 118.306 10.364C122.941 10.364 126.182 13.378 126.182 18.183ZM115.065 16.164H121.548C121.15 14.628 119.956 13.719 118.306 13.719C116.657 13.719 115.464 14.658 115.065 16.164Z" fill="var(--fill-0, #1E2119)"/>
<path id="Vector_7" d="M132.382 25.462H127.775V10.734H132.382V13.037C132.694 12.355 133.774 10.705 136.845 10.705H140.001V15.255H135.963C133.376 15.255 132.38 16.221 132.38 18.269V25.462H132.382Z" fill="var(--fill-0, #1E2119)"/>
</g>
</svg>
