<svg preserveAspectRatio="none" width="100%" height="100%" overflow="visible" style="display: block;" viewBox="0 0 104 104" fill="none" xmlns="http://www.w3.org/2000/svg">
<g id="Frame 47690" opacity="0.7">
<circle id="Ellipse 12" cx="52" cy="52" r="52" fill="var(--fill-0, white)"/>
<g id="Frame" clip-path="url(#clip0_271_121)">
<path id="Vector" d="M39.675 49.0003V58.6928H36.5925V46.5103L42.96 46.5153C45.66 46.5153 46.5825 48.4253 46.5825 50.1553V58.6928H43.5075V50.1728C43.5075 49.4453 43.135 49.0003 42.225 49.0003H39.675ZM60.6475 48.8553C59.5925 48.8553 58.7775 49.3953 58.435 50.1303C58.243 50.5457 58.1425 50.9976 58.14 51.4553H62.885C62.8275 50.1303 62.2275 48.8553 60.6475 48.8553ZM58.14 53.5553C58.14 55.1278 59.1225 56.2928 60.875 56.2928C62.235 56.2928 62.9125 55.9178 63.7025 55.1278L65.6075 56.9503C64.39 58.1528 63.105 58.8828 60.8525 58.8828C57.9025 58.8828 55.0775 57.2753 55.0775 52.5828C55.0775 48.5703 57.54 46.3028 60.78 46.3028C64.0675 46.3028 65.9675 48.9603 65.9675 52.4403V53.5478H58.14V53.5553ZM52.47 58.6728C49.96 58.6728 48.89 56.9253 48.89 55.1953V43.1953H51.97V46.5128H54.29V49.0028H51.9675V55.0028C51.9675 55.7128 52.305 56.1028 53.04 56.1028H54.29V58.6703H52.47V58.6728ZM33.8475 44.8278H30.7425V41.8778H33.8475V44.8278ZM33.855 58.8153C31.53 58.5953 30.74 57.1878 30.74 55.5528V46.5153H33.85V58.8253L33.855 58.8153ZM70.8675 58.5553C68.545 58.3303 67.76 56.9253 67.76 55.2978V41.4603H70.8675V58.5603V58.5553ZM81.735 43.4603C78.9225 29.7278 52.255 28.8578 35.075 39.3178V40.4728C52.2375 31.6528 76.585 31.7028 78.8025 44.3478C79.5425 48.5353 77.1875 52.8928 72.98 55.4028V58.6803C78.0425 56.8253 83.2425 50.8128 81.735 43.4603ZM50.495 67.4853C38.64 68.5803 26.28 66.8578 24.5525 57.5928C23.71 53.0253 25.795 48.1803 28.5475 45.1753V43.5678C23.58 47.9253 20.885 53.4428 22.4375 59.9603C24.4175 68.3228 35.025 73.0578 51.21 71.4828C57.6175 70.8603 66 68.7978 71.8275 65.5978V61.0578C66.5375 64.2103 57.785 66.8128 50.495 67.4853Z" fill="var(--fill-0, #505050)"/>
<path id="Vector_2" d="M74.4603 42.3749C74.4603 42.2249 74.3678 42.1774 74.1703 42.1774H73.9778V42.6024L74.1703 42.6074C74.3678 42.6074 74.4603 42.5449 74.4603 42.3974V42.3749ZM74.7603 43.4324H74.5328C74.5103 43.4324 74.4878 43.4224 74.4803 43.4024L74.1678 42.8699C74.1603 42.8574 74.1353 42.8449 74.1203 42.8449H73.9803V43.3749C73.9803 43.4049 73.9578 43.4374 73.9228 43.4374H73.7178C73.6903 43.4374 73.6653 43.4024 73.6653 43.3749V42.0424C73.6653 41.9699 73.6953 41.9299 73.7603 41.9224C73.8853 41.9099 74.0128 41.9074 74.1403 41.9074C74.5203 41.9074 74.7553 42.0224 74.7553 42.3774V42.4024C74.7553 42.6274 74.6403 42.7399 74.4703 42.7974L74.7953 43.3449C74.7953 43.3599 74.8078 43.3749 74.8078 43.3899C74.8128 43.4074 74.7978 43.4324 74.7603 43.4324ZM74.2153 41.6599C74.081 41.6604 73.9482 41.6873 73.8243 41.7392C73.7004 41.791 73.588 41.8667 73.4934 41.962C73.3023 42.1545 73.1956 42.415 73.1966 42.6861C73.1976 42.9573 73.3062 43.217 73.4987 43.4081C73.6912 43.5991 73.9516 43.7059 74.2228 43.7049C74.4925 43.7042 74.7511 43.5973 74.9425 43.4073C75.1339 43.2173 75.2427 42.9596 75.2453 42.6899C75.2433 42.4173 75.1342 42.1565 74.9415 41.9637C74.7487 41.771 74.4879 41.6619 74.2153 41.6599ZM74.2153 43.9274C73.8871 43.9277 73.5722 43.7977 73.3399 43.5658C73.1076 43.334 72.9769 43.0193 72.9766 42.6911C72.9762 42.3629 73.1063 42.048 73.3381 41.8157C73.57 41.5834 73.8846 41.4527 74.2128 41.4524H74.2153C74.5299 41.4724 74.8251 41.6115 75.0408 41.8414C75.2565 42.0712 75.3766 42.3746 75.3766 42.6899C75.3766 43.0051 75.2565 43.3085 75.0408 43.5384C74.8251 43.7683 74.5299 43.9074 74.2153 43.9274Z" fill="var(--fill-0, #505050)"/>
</g>
</g>
<defs>
<clipPath id="clip0_271_121">
<rect width="60" height="60" fill="white" transform="translate(22 22)"/>
</clipPath>
</defs>
</svg>
