<svg preserveAspectRatio="none" width="100%" height="100%" overflow="visible" style="display: block;" viewBox="0 0 40 40" fill="none" xmlns="http://www.w3.org/2000/svg">
<g id="Frame" clip-path="url(#clip0_271_104)">
<path id="Vector" d="M37.1052 16.3389C37.5517 14.9945 37.7061 13.5703 37.5581 12.1615C37.4102 10.7526 36.9633 9.39158 36.2474 8.16923C34.0695 4.37831 29.6923 2.42831 25.4174 3.34462C24.2337 2.02798 22.7245 1.04597 21.0412 0.497211C19.3579 -0.0515513 17.5599 -0.147746 15.8276 0.218288C14.0954 0.584321 12.49 1.3997 11.1726 2.58252C9.85525 3.76535 8.87229 5.27399 8.32246 6.95692C6.93442 7.24155 5.62311 7.81917 4.47618 8.65117C3.32926 9.48318 2.37312 10.5504 1.67169 11.7815C-0.529846 15.5665 -0.0300002 20.3406 2.90754 23.5877C2.45945 24.9314 2.30348 26.3554 2.45007 27.7643C2.59666 29.1732 3.04242 30.5345 3.75754 31.7572C5.93815 35.5495 10.3182 37.4994 14.5954 36.5818C15.5358 37.6408 16.6913 38.487 17.9847 39.0638C19.2782 39.6407 20.6798 39.935 22.096 39.9271C26.4777 39.9309 30.3597 37.1023 31.6982 32.93C33.086 32.6449 34.3971 32.0671 35.5439 31.2351C36.6907 30.4031 37.647 29.3362 38.3488 28.1054C40.5237 24.3272 40.0218 19.5788 37.1052 16.3388V16.3389ZM22.096 37.314C20.347 37.3168 18.6529 36.7038 17.3106 35.5825L17.5468 35.4486L25.496 30.8602C25.6939 30.7441 25.8581 30.5786 25.9727 30.3799C26.0872 30.1812 26.1481 29.9561 26.1494 29.7268V18.5191L29.5102 20.4631C29.5437 20.4802 29.5671 20.5123 29.5731 20.5497V29.8369C29.5645 33.9628 26.2218 37.3054 22.096 37.314ZM6.02431 30.4509C5.14719 28.9364 4.83226 27.161 5.13492 25.4372L5.37092 25.5789L13.3282 30.1675C13.525 30.2831 13.7492 30.344 13.9775 30.344C14.2057 30.344 14.4299 30.2831 14.6268 30.1675L24.3469 24.5637V28.4438C24.346 28.4639 24.3406 28.4836 24.3311 28.5013C24.3215 28.519 24.3081 28.5343 24.2918 28.5462L16.2403 33.1898C12.6623 35.2511 8.09108 34.0254 6.02431 30.4509ZM3.93062 13.1354C4.81383 11.6111 6.20789 10.4485 7.866 9.85338V19.298C7.863 19.5262 7.92131 19.751 8.03483 19.949C8.14835 20.147 8.31293 20.3109 8.51138 20.4235L18.1843 26.0038L14.8235 27.9478C14.8054 27.9575 14.7851 27.9625 14.7645 27.9625C14.744 27.9625 14.7237 27.9575 14.7055 27.9478L6.66969 23.3123C3.09877 21.2425 1.87415 16.6748 3.93062 13.0962V13.1355V13.1354ZM31.5408 19.55L21.8362 13.9146L25.1892 11.9785C25.2074 11.9688 25.2277 11.9638 25.2483 11.9638C25.2689 11.9638 25.2892 11.9688 25.3074 11.9785L33.3432 16.6222C34.5719 17.3311 35.5736 18.375 36.2312 19.6318C36.8889 20.8887 37.1755 22.3067 37.0575 23.7204C36.9394 25.134 36.4217 26.4849 35.5648 27.6153C34.7078 28.7457 33.5469 29.609 32.2177 30.1045V20.6597C32.2107 20.4319 32.1447 20.2099 32.026 20.0153C31.9073 19.8208 31.7401 19.6604 31.5408 19.55ZM34.8857 14.5208L34.6495 14.3789L26.7082 9.75108C26.5101 9.63485 26.2846 9.57358 26.0549 9.57358C25.8253 9.57358 25.5998 9.63485 25.4017 9.75108L15.6892 15.3551V11.4749C15.6872 11.4552 15.6905 11.4353 15.6988 11.4173C15.7071 11.3993 15.7201 11.3838 15.7365 11.3726L23.7723 6.73677C25.0039 6.02727 26.4121 5.68311 27.8321 5.74454C29.2521 5.80596 30.6252 6.27044 31.791 7.08363C32.9567 7.89683 33.8668 9.02513 34.4148 10.3366C34.9628 11.648 35.1261 13.0884 34.8855 14.4892V14.5208H34.8857ZM13.8555 21.3995L10.4948 19.4634C10.478 19.4532 10.4636 19.4395 10.4527 19.4232C10.4418 19.4069 10.4346 19.3883 10.4317 19.3689V10.1054C10.4336 8.68429 10.8399 7.29309 11.6033 6.09444C12.3667 4.89579 13.4556 3.93923 14.7425 3.3366C16.0295 2.73397 17.4615 2.51017 18.871 2.69137C20.2805 2.87257 21.6093 3.45129 22.702 4.35985L22.4658 4.49369L14.5166 9.08215C14.3188 9.1982 14.1546 9.3637 14.04 9.56241C13.9255 9.76112 13.8646 9.98619 13.8634 10.2155L13.8555 21.3997V21.3995ZM15.6814 17.4642L20.0103 14.9692L24.3469 17.4643V22.4542L20.026 24.9492L15.6894 22.4542L15.6814 17.4643V17.4642Z" fill="var(--fill-0, #10A37F)"/>
</g>
<defs>
<clipPath id="clip0_271_104">
<rect width="40" height="40" fill="white"/>
</clipPath>
</defs>
</svg>
