<svg preserveAspectRatio="none" width="100%" height="100%" overflow="visible" style="display: block;" viewBox="0 0 104 104" fill="none" xmlns="http://www.w3.org/2000/svg">
<g id="Frame 47685" opacity="0.7">
<circle id="Ellipse 12" cx="52" cy="52" r="52" fill="var(--fill-0, white)"/>
<g id="Frame" clip-path="url(#clip0_271_148)">
<path id="Vector" d="M39.6753 49.0001V58.6926H36.5928V46.5101L42.9603 46.5151C45.6603 46.5151 46.5828 48.4251 46.5828 50.1551V58.6926H43.5078V50.1726C43.5078 49.4451 43.1353 49.0001 42.2253 49.0001H39.6753ZM60.6478 48.8551C59.5928 48.8551 58.7778 49.3951 58.4353 50.1301C58.2433 50.5456 58.1427 50.9975 58.1403 51.4551H62.8853C62.8278 50.1301 62.2278 48.8551 60.6478 48.8551ZM58.1403 53.5551C58.1403 55.1276 59.1228 56.2926 60.8753 56.2926C62.2353 56.2926 62.9128 55.9176 63.7028 55.1276L65.6078 56.9501C64.3903 58.1526 63.1053 58.8826 60.8528 58.8826C57.9028 58.8826 55.0778 57.2751 55.0778 52.5826C55.0778 48.5701 57.5403 46.3026 60.7803 46.3026C64.0678 46.3026 65.9678 48.9601 65.9678 52.4401V53.5476H58.1403V53.5551ZM52.4703 58.6726C49.9603 58.6726 48.8903 56.9251 48.8903 55.1951V43.1951H51.9703V46.5126H54.2903V49.0026H51.9678V55.0026C51.9678 55.7126 52.3053 56.1026 53.0403 56.1026H54.2903V58.6701H52.4703V58.6726ZM33.8478 44.8276H30.7428V41.8776H33.8478V44.8276ZM33.8553 58.8151C31.5303 58.5951 30.7403 57.1876 30.7403 55.5526V46.5151H33.8503V58.8251L33.8553 58.8151ZM70.8678 58.5551C68.5453 58.3301 67.7603 56.9251 67.7603 55.2976V41.4601H70.8678V58.5601V58.5551ZM81.7353 43.4601C78.9228 29.7276 52.2553 28.8576 35.0753 39.3176V40.4726C52.2378 31.6526 76.5853 31.7026 78.8028 44.3476C79.5428 48.5351 77.1878 52.8926 72.9803 55.4026V58.6801C78.0428 56.8251 83.2428 50.8126 81.7353 43.4601ZM50.4953 67.4851C38.6403 68.5801 26.2803 66.8576 24.5528 57.5926C23.7103 53.0251 25.7953 48.1801 28.5478 45.1751V43.5676C23.5803 47.9251 20.8853 53.4426 22.4378 59.9601C24.4178 68.3226 35.0253 73.0576 51.2103 71.4826C57.6178 70.8601 66.0003 68.7976 71.8278 65.5976V61.0576C66.5378 64.2101 57.7853 66.8126 50.4953 67.4851Z" fill="var(--fill-0, #505050)"/>
<path id="Vector_2" d="M74.4603 42.3749C74.4603 42.2249 74.3678 42.1774 74.1703 42.1774H73.9778V42.6024L74.1703 42.6074C74.3678 42.6074 74.4603 42.5449 74.4603 42.3974V42.3749ZM74.7603 43.4324H74.5328C74.5103 43.4324 74.4878 43.4224 74.4803 43.4024L74.1678 42.8699C74.1603 42.8574 74.1353 42.8449 74.1203 42.8449H73.9803V43.3749C73.9803 43.4049 73.9578 43.4374 73.9228 43.4374H73.7178C73.6903 43.4374 73.6653 43.4024 73.6653 43.3749V42.0424C73.6653 41.9699 73.6953 41.9299 73.7603 41.9224C73.8853 41.9099 74.0128 41.9074 74.1403 41.9074C74.5203 41.9074 74.7553 42.0224 74.7553 42.3774V42.4024C74.7553 42.6274 74.6403 42.7399 74.4703 42.7974L74.7953 43.3449C74.7953 43.3599 74.8078 43.3749 74.8078 43.3899C74.8128 43.4074 74.7978 43.4324 74.7603 43.4324ZM74.2153 41.6599C74.081 41.6604 73.9482 41.6873 73.8243 41.7392C73.7004 41.791 73.588 41.8667 73.4934 41.962C73.3023 42.1545 73.1956 42.415 73.1966 42.6861C73.1976 42.9573 73.3062 43.217 73.4987 43.4081C73.6912 43.5991 73.9516 43.7059 74.2228 43.7049C74.4925 43.7042 74.7511 43.5973 74.9425 43.4073C75.1339 43.2173 75.2427 42.9596 75.2453 42.6899C75.2433 42.4173 75.1342 42.1565 74.9415 41.9637C74.7487 41.771 74.4879 41.6619 74.2153 41.6599ZM74.2153 43.9274C73.8871 43.9277 73.5722 43.7977 73.3399 43.5658C73.1076 43.334 72.9769 43.0193 72.9766 42.6911C72.9762 42.3629 73.1063 42.048 73.3381 41.8157C73.57 41.5834 73.8846 41.4527 74.2128 41.4524H74.2153C74.5299 41.4724 74.8251 41.6115 75.0408 41.8414C75.2565 42.0712 75.3766 42.3746 75.3766 42.6899C75.3766 43.0051 75.2565 43.3085 75.0408 43.5384C74.8251 43.7683 74.5299 43.9074 74.2153 43.9274Z" fill="var(--fill-0, #505050)"/>
</g>
</g>
<defs>
<clipPath id="clip0_271_148">
<rect width="60" height="60" fill="white" transform="translate(22 22)"/>
</clipPath>
</defs>
</svg>
