<?xml version="1.0" encoding="UTF-8"?>
<svg viewBox="0 0 156 44" xmlns="http://www.w3.org/2000/svg">
    <g>
        <path fill="currentColor" stroke="none" d="M 68.681297 13.3431 C 68.681297 16.415701 66.737602 18.184099 63.351601 18.184099 L 60.7071 18.184099 L 60.7071 21.9545 L 57.712101 21.9545 L 57.712101 8.765141 L 63.359001 8.765141 C 66.737602 8.765141 68.681297 10.423901 68.681297 13.3431 Z M 65.8265 13.438099 C 65.8265 11.976601 64.874901 11.245899 63.200401 11.245899 L 60.7071 11.245899 L 60.7071 15.714199 L 63.200401 15.714199 C 64.874901 15.6996 65.8265 14.9433 65.8265 13.438099 Z"/>
        <path fill="currentColor" stroke="none" d="M 73.4133 8.76511 L 73.4133 15.341499 L 79.443802 15.341499 L 79.443802 8.76511 L 82.449799 8.76511 L 82.449799 21.9545 L 79.443802 21.9545 L 79.443802 17.983101 L 73.4133 17.983101 L 73.4133 21.939899 L 70.407204 21.939899 L 70.407204 8.750488 L 73.4133 8.76511 Z"/>
        <path fill="currentColor" stroke="none" d="M 94.009102 19.3167 L 87.908501 19.3167 L 86.849998 21.9545 L 83.748001 21.9545 L 89.531403 8.765141 L 92.6334 8.765141 L 98.320801 21.9545 L 95.104599 21.9545 L 94.009102 19.3167 Z M 92.939499 16.678801 L 90.977303 11.874298 L 88.996597 16.678801 L 92.939499 16.678801 Z"/>
        <path fill="currentColor" stroke="none" d="M 119.382004 19.3167 L 113.280998 19.3167 L 112.204002 21.9545 L 109.102997 21.9545 L 114.882004 8.765141 L 117.980003 8.765141 L 123.671997 21.9545 L 120.455002 21.9545 L 119.382004 19.3167 Z M 118.311996 16.678801 L 116.358002 11.874298 L 114.376999 16.678801 L 118.311996 16.678801 Z"/>
        <path fill="currentColor" stroke="none" d="M 102.709999 8.765141 L 102.709999 19.3605 L 108.416 19.3605 L 108.416 21.9618 L 99.7043 21.9618 L 99.7043 8.772438 L 102.709999 8.765141 Z"/>
        <path fill="currentColor" stroke="none" d="M 60.441502 30.748501 L 66.907204 39.2248 L 66.907204 30.748501 L 69.758301 30.748501 L 69.758301 43.923302 L 67.021599 43.923302 L 60.574299 35.465302 L 60.574299 43.923302 L 57.712101 43.923302 L 57.712101 30.748501 L 60.441502 30.748501 Z"/>
        <path fill="currentColor" stroke="none" d="M 81.827103 30.748501 L 81.827103 33.218399 L 74.679001 33.218399 L 74.679001 36.079102 L 81.089401 36.079102 L 81.089401 38.548901 L 74.679001 38.548901 L 74.679001 41.471802 L 82.018898 41.471802 L 82.018898 43.923302 L 71.691399 43.923302 L 71.691399 30.748501 L 81.827103 30.748501 Z"/>
        <path fill="currentColor" stroke="none" d="M 94.127403 30.748501 L 94.127403 33.273201 L 90.070198 33.273201 L 90.070198 43.923302 L 87.064201 43.923302 L 87.064201 33.273201 L 83.007004 33.273201 L 83.007004 30.748501 L 94.127403 30.748501 Z"/>
        <path fill="currentColor" stroke="none" d="M 98.221603 30.748301 L 101.016998 40.693298 L 103.794998 30.748301 L 106.745003 30.748301 L 109.559998 40.693298 L 112.336998 30.748301 L 115.417 30.748301 L 110.990997 43.933998 L 107.889 43.933998 L 105.218002 34.533401 L 102.482002 43.9231 L 99.3908 43.9231 L 94.997902 30.737301 L 98.221603 30.748301 Z"/>
        <path fill="currentColor" stroke="none" d="M 129.856003 37.321201 C 129.856003 41.1026 126.794998 44.003502 122.751999 44.003502 C 118.709999 44.003502 115.652 41.120899 115.652 37.321201 C 115.652 33.5214 118.713997 30.6826 122.751999 30.6826 C 126.791 30.6826 129.856003 33.525101 129.856003 37.321201 Z M 118.713997 37.321201 C 118.707001 38.400299 119.133003 39.438099 119.897003 40.206699 C 120.662003 40.975201 121.704002 41.4118 122.792999 41.420502 C 123.609001 41.428398 124.408997 41.196301 125.091003 40.753502 C 125.773003 40.310799 126.307999 39.677299 126.625999 38.933399 C 126.945 38.189499 127.032997 37.368599 126.880997 36.574902 C 126.727997 35.781101 126.339996 35.050201 125.767998 34.474701 C 125.195 33.8992 124.462997 33.5051 123.664001 33.3423 C 122.864998 33.179501 122.035004 33.255299 121.278999 33.5602 C 120.524002 33.865002 119.876999 34.385201 119.419998 35.054699 C 118.962997 35.7243 118.717003 36.5131 118.713997 37.321201 Z"/>
        <path fill="currentColor" stroke="none" d="M 139.121994 43.923302 L 137.011993 40.1674 L 133.951004 40.1674 L 133.951004 43.923302 L 130.947998 43.923302 L 130.947998 30.748501 L 136.727997 30.748501 C 140.210007 30.748501 142.186996 32.407299 142.186996 35.3265 C 142.186996 37.3615 141.313004 38.8302 139.692993 39.582901 L 142.544998 43.923302 L 139.121994 43.923302 Z M 133.957993 37.6684 L 136.735001 37.6684 C 138.391006 37.6684 139.339005 36.915798 139.339005 35.4105 C 139.339005 33.905201 138.391006 33.218399 136.735001 33.218399 L 133.957993 33.218399 L 133.957993 37.6684 Z"/>
        <path fill="currentColor" stroke="none" d="M 152.384995 43.923302 L 148.561005 38.556198 L 146.643005 40.664299 L 146.643005 43.923302 L 143.651001 43.923302 L 143.651001 30.748501 L 146.656998 30.748501 L 146.656998 36.740398 L 152.190002 30.748501 L 155.667999 30.748501 L 150.658997 36.250801 L 156 43.923302 L 152.384995 43.923302 Z"/>
        <path fill="currentColor" stroke="none" d="M 35.507999 21.9834 L 8.87793 21.9834 L 8.87793 30.777599 L 35.507999 30.777599 L 35.507999 21.9834 Z"/>
        <path fill="currentColor" stroke="none" d="M 44.389599 8.793949 L 35.5117 8.793949 L 35.5117 21.983299 L 44.389599 21.983299 L 44.389599 8.793949 Z"/>
        <path fill="currentColor" stroke="none" d="M 8.87793 30.7778 L 0 30.7778 L 0 32.977299 L 0 35.176701 L 0 43.967201 L 8.87793 43.967201 L 8.87793 35.176701 L 8.87793 30.7778 Z"/>
        <path fill="currentColor" stroke="none" d="M 35.5117 0 L 8.87793 0 L 7.60175 0 L 0 0 L 0 17.588301 L 0 20.3943 L 0 21.983601 L 8.87793 21.983601 L 8.87793 20.3943 L 8.87793 17.588301 L 8.87793 8.794151 L 35.5117 8.794151 L 35.5117 0 Z"/>
        <path fill="currentColor" stroke="none" d="M 35.507999 21.9834 L 8.87793 21.9834 L 8.87793 30.777599 L 35.507999 30.777599 L 35.507999 21.9834 Z"/>
    </g>
</svg>
