<svg width="246" height="121" viewBox="0 0 246 121" fill="none" xmlns="http://www.w3.org/2000/svg">
<mask id="mask0_524_717" style="mask-type:alpha" maskUnits="userSpaceOnUse" x="0" y="0" width="246" height="121">
<path d="M101.817 102.82C79.397 125.239 43.4709 125.92 20.2311 104.862L39.1127 85.98L72.5114 52.582L78.791 58.861L46.8683 90.784C58.7947 96.012 73.2146 93.744 82.978 83.981C95.694 71.264 95.694 50.646 82.978 37.929C70.2608 25.212 49.6426 25.212 36.9258 37.929C25.6387 49.216 24.3697 66.728 33.1188 79.415L14.1066 98.427C-4.9489 75.17 -3.62241 40.798 18.0863 19.089C41.2079 -4.03228 78.695 -4.03228 101.817 19.089C124.938 42.211 124.938 79.698 101.817 102.82Z" fill="#FF3CD4"/>
<path d="M186.019 118.427C217.726 118.427 243.611 93.504 245.153 62.181H171.218V71.062H216.363C211.626 83.191 199.827 91.784 186.02 91.784C168.035 91.784 153.456 77.205 153.456 59.22C153.456 41.236 168.035 26.657 186.02 26.657C201.982 26.657 215.262 38.142 218.046 53.3H244.934C241.963 23.381 216.72 0.0136719 186.019 0.0136719C153.321 0.0136719 126.813 26.521 126.813 59.22C126.813 91.919 153.321 118.427 186.019 118.427Z" fill="#FF3CD4"/>
</mask>
<g mask="url(#mask0_524_717)">
<path d="M-3 -2H255V122H-3V-2Z" fill="url(#paint0_linear_524_717)"/>
</g>
<defs>
<linearGradient id="paint0_linear_524_717" x1="214.966" y1="9.80951" x2="92.43" y2="129.925" gradientUnits="userSpaceOnUse">
<stop stop-color="#FAEA53"/>
<stop offset="0.123193" stop-color="#FFAF90"/>
<stop offset="0.251059" stop-color="#FE7981"/>
<stop offset="0.562232" stop-color="#BC50FF"/>
<stop offset="1" stop-color="#53B7FF"/>
</linearGradient>
</defs>
</svg>
