<svg width="157" height="24" viewBox="0 0 157 24" fill="none" xmlns="http://www.w3.org/2000/svg">
<path fill-rule="evenodd" clip-rule="evenodd" d="M99.0961 5.14397H100.812V3.42764H102.526V1.7137H104.238V-0.000244141H99.0961V5.14397Z" fill="black"/>
<path fill-rule="evenodd" clip-rule="evenodd" d="M124.815 3.42764H123.101V1.7137H121.385V-0.000244141H109.387V1.7137H107.673V3.42764H105.952V5.14397H104.247V18.8531H105.952V20.5695H107.668V22.2834H109.382V23.9973H121.38V22.2834H123.096V20.5695H124.81V18.8555H126.531V5.14397H124.815V3.42764ZM121.389 15.4276H119.675V17.1392H117.961V18.8531H112.82V17.1392H111.106V15.4253H109.389V8.56947H111.106V6.85553H112.82V5.14159H117.961V6.85553H119.675V8.56947H121.389V15.4276Z" fill="black"/>
<path fill-rule="evenodd" clip-rule="evenodd" d="M102.526 20.5718H100.812V18.8555H99.0961V23.9973H104.238V22.2834H102.526V20.5718Z" fill="black"/>
<path fill-rule="evenodd" clip-rule="evenodd" d="M155.192 20.5718H153.478V22.2834H151.767V23.9973H156.908V18.8555H155.192V20.5718Z" fill="black"/>
<path fill-rule="evenodd" clip-rule="evenodd" d="M151.767 -0.000244141V1.7137H153.478V3.42526H155.192V5.14159H156.908V-0.000244141H151.767Z" fill="black"/>
<path fill-rule="evenodd" clip-rule="evenodd" d="M150.522 3.42764H148.808V1.7137H147.094V-0.000244141H133.38V1.7137H131.666V3.42764H129.949V5.14397H129.959V11.9997H131.673V13.7137H135.103V15.4276H145.387V17.1416H143.673V18.8555H136.817V17.1416H135.103V15.4276H129.952V20.5718H131.628V22.2858H133.325V23.9997H147.039V22.2858H148.767V20.5718H150.514V13.7137H148.815V11.9997H147.101V10.2834H136.817V8.56947H135.103V6.85791H136.817V5.14397H143.673V6.85791H145.387V8.57185H150.531V5.14397H150.522V3.42764Z" fill="black"/>
<path fill-rule="evenodd" clip-rule="evenodd" d="M6.68357 18.1366V15.1063L7.28821 14.4992H16.0817V9.25029H7.16443L6.68357 8.76705V5.73671L7.08825 5.33202H18.8597V0.006897H0.330078V23.9759H19.2001V18.6484H7.19299L6.68357 18.1366Z" fill="black"/>
<path fill-rule="evenodd" clip-rule="evenodd" d="M27.1485 18.1414V0.0283204H20.6808V23.9973H39.0176V18.6698H27.6794L27.1485 18.1414Z" fill="black"/>
<path d="M46.8089 0.0283204H40.3411V23.9997H46.8089V0.0283204Z" fill="black"/>
<path fill-rule="evenodd" clip-rule="evenodd" d="M56.9759 17.97L68.2332 5.05113V0.0283204H48.3348V5.35583H59.4611V6.00094L48.2182 19.0912V23.9997H68.5355V18.6722H56.9759V17.97Z" fill="black"/>
<path fill-rule="evenodd" clip-rule="evenodd" d="M78.8858 0.0283204L69.3354 23.9997H75.8412L77.4575 19.791L78.2098 19.3578H86.4462L87.139 19.7577L88.7743 23.9973H95.6611L86.1106 0.0283204H78.8858ZM84.499 14.5207H80.1713L79.6714 14.0208L82.0304 7.44351H82.5851L84.9656 14.0612L84.499 14.5207Z" fill="black"/>
</svg>
