<svg width="43" height="48" viewBox="0 0 43 48" fill="none" xmlns="http://www.w3.org/2000/svg">
<path fill-rule="evenodd" clip-rule="evenodd" d="M19.4667 0.497837C20.6222 -0.165946 22.0445 -0.165946 23.1999 0.497837L40.7981 10.6334C41.9535 11.2972 42.6667 12.5294 42.6667 13.8609V34.1361C42.6667 35.4676 41.9535 36.6958 40.7981 37.3636L23.1999 47.4992C22.0445 48.1669 20.6222 48.1669 19.4667 47.4992L1.86858 37.3596C0.71317 36.6958 0 35.4637 0 34.1321V13.8569C0 12.5254 0.71317 11.2972 1.86858 10.6295L19.4667 0.497837ZM20.7696 3.14502C21.0485 2.66407 21.7417 2.66407 22.0206 3.14502L39.8578 33.9692C40.1367 34.4501 39.7901 35.0503 39.2323 35.0503H3.55788C3.00009 35.0503 2.65347 34.4501 2.93236 33.9692L20.7696 3.14502ZM30.3754 24.231C30.3754 29.2392 26.3076 33.2974 21.2875 33.2974C16.2674 33.2974 12.1996 29.2392 12.1996 24.231C12.1996 19.2229 16.2674 15.1646 21.2875 15.1646C26.3076 15.1646 30.3754 19.2229 30.3754 24.231ZM17.5464 21.1228C17.5464 20.777 17.8253 20.4987 18.1719 20.4987H24.4031C24.7498 20.4987 25.0287 20.777 25.0287 21.1228V27.3393C25.0287 27.6851 24.7498 27.9633 24.4031 27.9633H18.1719C17.8253 27.9633 17.5464 27.6851 17.5464 27.3393V21.1228Z" fill="white"/>
</svg>
