<svg width="82" height="18" viewBox="0 0 82 18" fill="none" xmlns="http://www.w3.org/2000/svg">
<g clip-path="url(#clip0_524_676)">
<mask id="mask0_524_676" style="mask-type:luminance" maskUnits="userSpaceOnUse" x="0" y="0" width="82" height="18">
<path d="M81.2324 0.765381H0V17.2346H81.2324V0.765381Z" fill="white"/>
</mask>
<g mask="url(#mask0_524_676)">
<path d="M7.88212 17.1639C6.33827 17.1639 4.97609 16.831 3.79487 16.1651C2.61366 15.4992 1.69682 14.5541 1.04577 13.3284C0.394018 12.104 0.0688477 10.6754 0.0688477 9.0439C0.0688477 7.41239 0.396138 5.9675 1.05072 4.73115C1.7053 3.4948 2.62002 2.53625 3.79417 1.85622C4.96831 1.17619 6.33049 0.836182 7.88212 0.836182C9.43374 0.836182 10.7754 1.17478 11.9531 1.85128C13.1308 2.52777 14.0455 3.48632 14.6965 4.7262C15.3476 5.96609 15.6735 7.40532 15.6735 9.0439C15.6735 10.6825 15.3476 12.1054 14.6965 13.3347C14.0455 14.564 13.1329 15.5091 11.9588 16.1715C10.7846 16.8338 9.42597 17.1639 7.88212 17.1639ZM7.8595 14.805C8.89085 14.805 9.79284 14.5732 10.5641 14.1081C11.336 13.6436 11.9262 12.9763 12.3362 12.1054C12.7455 11.2352 12.9505 10.211 12.9505 9.03329C12.9505 7.85561 12.7455 6.81648 12.3362 5.93852C11.9262 5.06056 11.3374 4.38407 10.5697 3.90833C9.80133 3.43259 8.89792 3.19508 7.8595 3.19508C6.82107 3.19508 5.92827 3.43259 5.15988 3.90833C4.39149 4.38407 3.80123 5.06056 3.3877 5.93852C2.97417 6.81648 2.76776 7.84784 2.76776 9.03329C2.76776 10.2187 2.97417 11.2444 3.3877 12.1111C3.80123 12.9777 4.39149 13.6436 5.15988 14.1081C5.92827 14.5725 6.82814 14.805 7.8595 14.805Z" fill="#1D1D1B"/>
<path d="M7.88201 17.2347C6.33321 17.2347 4.94629 16.8954 3.75942 16.2274C2.57184 15.5579 1.63733 14.5945 0.982747 13.3623C0.329579 12.1324 -0.00195312 10.6797 -0.00195312 9.04391C-0.00195312 7.40816 0.330993 5.93924 0.988402 4.69864C1.64652 3.45593 2.5782 2.47971 3.75871 1.79544C4.93851 1.11188 6.32543 0.765503 7.88201 0.765503C9.43858 0.765503 10.805 1.11046 11.9883 1.78979C13.1724 2.47052 14.1048 3.44674 14.7594 4.69299C15.4125 5.93712 15.7441 7.40109 15.7441 9.04391C15.7441 10.6868 15.4125 12.1338 14.7594 13.3673C14.1048 14.6029 13.1745 15.5671 11.994 16.2323C10.8149 16.8975 9.43081 17.2347 7.88201 17.2347ZM7.88201 0.906881C6.35088 0.906881 4.98799 1.24689 3.8301 1.91773C2.67292 2.58787 1.75891 3.5457 1.11423 4.76439C0.467423 5.98519 0.139425 7.42512 0.139425 9.04391C0.139425 10.6627 0.465302 12.0864 1.10787 13.2959C1.74972 14.5033 2.66515 15.4484 3.82869 16.1044C4.99365 16.7611 6.35724 17.094 7.8813 17.094C9.40536 17.094 10.7654 16.7632 11.9233 16.11C13.0798 15.4583 13.9917 14.5132 14.6335 13.3023C15.2761 12.0892 15.602 10.6571 15.602 9.04461C15.602 7.43219 15.2761 5.98377 14.6335 4.75944C13.9917 3.53722 13.0784 2.57938 11.9176 1.91279C10.7562 1.24548 9.39829 0.906881 7.88201 0.906881ZM7.85939 14.8758C6.81955 14.8758 5.89918 14.6376 5.12301 14.1689C4.34614 13.6995 3.74104 13.0174 3.32397 12.1415C2.90832 11.2692 2.69696 10.2237 2.69696 9.0333C2.69696 7.8429 2.90761 6.79175 3.32397 5.90884C3.74104 5.0224 4.34614 4.32965 5.12301 3.84896C5.89918 3.36898 6.81955 3.1251 7.85939 3.1251C8.89922 3.1251 9.83091 3.36898 10.6071 3.84896C11.3832 4.32965 11.9869 5.02311 12.4005 5.90955C12.8126 6.79316 13.0218 7.84431 13.0218 9.03401C13.0218 10.2237 12.8126 11.2608 12.4005 12.1366C11.9862 13.016 11.3811 13.7002 10.6007 14.1696C9.82172 14.639 8.89922 14.8758 7.85939 14.8758ZM7.85939 3.26648C6.84641 3.26648 5.95078 3.50258 5.19723 3.96913C4.44439 4.43568 3.85697 5.10793 3.45192 5.96893C3.04475 6.83346 2.83904 7.8641 2.83904 9.0333C2.83904 10.2025 3.04546 11.2275 3.45192 12.0808C3.85697 12.9311 4.44439 13.5928 5.19653 14.048C5.94937 14.504 6.8457 14.7344 7.85939 14.7344C8.87307 14.7344 9.77082 14.5033 10.5279 14.048C11.2836 13.5928 11.871 12.9297 12.2725 12.0758C12.6761 11.2191 12.8804 10.1955 12.8804 9.0333C12.8804 7.87117 12.6761 6.83346 12.2725 5.96893C11.8703 5.10793 11.285 4.43497 10.5328 3.96913C9.7793 3.50258 8.88014 3.26648 7.85939 3.26648Z" fill="#1D1D1B"/>
<path d="M24.6824 17.1639C23.1386 17.1639 21.7764 16.8309 20.5952 16.165C19.4139 15.4991 18.4971 14.554 17.8461 13.3283C17.195 12.1032 16.8691 10.6746 16.8691 9.04314C16.8691 7.41164 17.1964 5.96675 17.851 4.7304C18.5056 3.49405 19.4203 2.5355 20.5945 1.85547C21.7686 1.17544 23.1308 0.834717 24.6817 0.834717C26.2326 0.834717 27.575 1.17332 28.7527 1.84982C29.9304 2.52631 30.8451 3.48486 31.4961 4.72474C32.1472 5.96463 32.4731 7.40386 32.4731 9.04244C32.4731 10.681 32.1472 12.1039 31.4961 13.3332C30.8451 14.5625 29.9325 15.5076 28.7583 16.17C27.5842 16.8323 26.2263 17.1639 24.6824 17.1639ZM24.6605 14.805C25.6919 14.805 26.5938 14.5731 27.3651 14.108C28.137 13.6436 28.7272 12.9762 29.1372 12.1054C29.5465 11.2352 29.7515 10.2109 29.7515 9.03325C29.7515 7.85557 29.5465 6.81643 29.1372 5.93848C28.7272 5.06052 28.1384 4.38402 27.3707 3.90828C26.6023 3.43255 25.6989 3.19503 24.6605 3.19503C23.6221 3.19503 22.7293 3.43255 21.9609 3.90828C21.1925 4.38402 20.6022 5.06052 20.1887 5.93848C19.7752 6.81643 19.5688 7.84779 19.5688 9.03325C19.5688 10.2187 19.7752 11.2444 20.1887 12.111C20.6022 12.9777 21.1925 13.6436 21.9609 14.108C22.7293 14.5724 23.6291 14.805 24.6605 14.805Z" fill="#1D1D1B"/>
<path d="M24.6816 17.2345C23.1328 17.2345 21.7459 16.8952 20.5597 16.2272C19.3721 15.5578 18.4376 14.5943 17.783 13.3622C17.1292 12.1329 16.7983 10.6795 16.7983 9.04379C16.7983 7.40804 17.1313 5.93912 17.7887 4.69853C18.4468 3.45652 19.3785 2.4796 20.559 1.79532C21.7388 1.11176 23.1257 0.765381 24.6816 0.765381C26.2375 0.765381 27.6046 1.11035 28.7879 1.78967C29.972 2.47041 30.9044 3.44662 31.5589 4.69287C32.2121 5.93771 32.5436 7.40097 32.5436 9.04379C32.5436 10.6866 32.2121 12.1336 31.5589 13.3671C30.9044 14.6028 29.9741 15.5663 28.7936 16.2322C27.6145 16.8974 26.2304 17.2345 24.6816 17.2345ZM24.6816 0.906759C23.1505 0.906759 21.7876 1.24678 20.6297 1.91762C19.4725 2.58775 18.5585 3.54559 17.9138 4.76427C17.2677 5.98436 16.9397 7.4243 16.9397 9.04379C16.9397 10.6633 17.2656 12.087 17.9082 13.2957C18.55 14.5031 19.4654 15.4482 20.629 16.1042C21.7939 16.7609 23.1575 17.0939 24.6816 17.0939C26.2057 17.0939 27.5657 16.7631 28.7236 16.1099C29.8801 15.4581 30.792 14.513 31.4338 13.3021C32.0764 12.0891 32.4023 10.6569 32.4023 9.0445C32.4023 7.43208 32.0764 5.98366 31.4338 4.75932C30.792 3.53711 29.8787 2.57927 28.7179 1.91267C27.5565 1.24536 26.1979 0.906759 24.6816 0.906759ZM24.6597 14.8757C23.6198 14.8757 22.6995 14.6374 21.924 14.1688C21.1471 13.6994 20.542 13.0172 20.1243 12.1414C19.7086 11.2691 19.4973 10.2236 19.4973 9.03319C19.4973 7.84278 19.7079 6.79163 20.1243 5.90873C20.5413 5.02299 21.1464 4.32953 21.9233 3.84884C22.6995 3.36887 23.6198 3.12499 24.6597 3.12499C25.6995 3.12499 26.6312 3.36887 27.4074 3.84884C28.1835 4.32953 28.7872 5.02299 29.2007 5.90943C29.6129 6.79305 29.8221 7.84419 29.8221 9.03389C29.8221 10.2236 29.6129 11.2606 29.2007 12.1364C28.7865 13.0158 28.1814 13.7001 27.401 14.1695C26.622 14.6388 25.6995 14.8757 24.6597 14.8757ZM24.6597 3.26637C23.6467 3.26637 22.7511 3.50247 21.9975 3.96902C21.2447 4.43556 20.6573 5.10852 20.2522 5.96881C19.845 6.83334 19.6393 7.86399 19.6393 9.03319C19.6393 10.2024 19.8457 11.2274 20.2522 12.0806C20.6573 12.931 21.2447 13.5926 21.9975 14.0479C22.7504 14.5038 23.6467 14.7343 24.6604 14.7343C25.6741 14.7343 26.5718 14.5031 27.3289 14.0479C28.0846 13.5926 28.672 12.9296 29.0735 12.0757C29.4764 11.2189 29.6814 10.1953 29.6814 9.03319C29.6814 7.87106 29.4771 6.83334 29.0735 5.96881C28.6713 5.10782 28.086 4.43486 27.3338 3.96902C26.5803 3.50247 25.6804 3.26637 24.6597 3.26637Z" fill="#1D1D1B"/>
<path d="M33.9951 16.9115V1.0885H39.3173C41.0654 1.0885 42.5619 1.41438 43.8054 2.06543C45.0488 2.71648 45.9889 3.63614 46.6251 4.82513C47.2613 6.01412 47.5794 7.41306 47.5794 9.02265C47.5794 10.6322 47.2613 12.0184 46.6251 13.2032C45.9889 14.3886 45.0488 15.3026 43.8054 15.9466C42.5619 16.5906 41.0654 16.9122 39.3173 16.9122L33.9951 16.9115ZM39.306 14.7279C40.4914 14.7279 41.5023 14.4996 42.34 14.0422C43.1776 13.5849 43.8195 12.9282 44.2655 12.0729C44.7116 11.2168 44.935 10.2003 44.935 9.02265C44.935 7.84497 44.7116 6.81503 44.2655 5.95545C43.8195 5.09587 43.1755 4.43422 42.3343 3.96909C41.4931 3.50466 40.4801 3.27209 39.2947 3.27209H36.5845V14.7279H39.306Z" fill="#1D1D1B"/>
<path d="M39.3172 16.9823H33.9243V1.01782H39.3172C41.0689 1.01782 42.5894 1.34935 43.8378 2.00252C45.0882 2.6571 46.0468 3.59585 46.6872 4.7912C47.3263 5.98514 47.65 7.40811 47.65 9.02195C47.65 10.6358 47.3263 12.046 46.6872 13.2365C46.0468 14.429 45.0883 15.3621 43.8371 16.0089C42.5887 16.655 41.0689 16.9823 39.3172 16.9823ZM34.0664 16.8409H39.3179C41.047 16.8409 42.5456 16.5185 43.7734 15.8831C44.9985 15.249 45.9372 14.3357 46.5635 13.1693C47.1912 12.0001 47.5101 10.6047 47.5101 9.02195C47.5101 7.43922 47.192 6.03109 46.5635 4.85836C45.9372 3.68774 44.9978 2.76949 43.7727 2.12764C42.5449 1.48507 41.0455 1.15919 39.3172 1.15919H34.0657L34.0664 16.8409ZM39.3066 14.7987H36.5144V3.2014H39.2953C40.4871 3.2014 41.5213 3.43892 42.3688 3.90688C43.2185 4.37626 43.8781 5.05416 44.329 5.92223C44.7786 6.78817 45.0063 7.83154 45.0063 9.02195C45.0063 10.2124 44.7786 11.243 44.329 12.1054C43.8781 12.97 43.2206 13.6429 42.3745 14.1045C41.5305 14.5654 40.4984 14.7987 39.3066 14.7987ZM36.6557 14.6573H39.3066C40.4744 14.6573 41.4838 14.4297 42.3066 13.9801C43.128 13.5319 43.7657 12.8795 44.2039 12.0397C44.6429 11.1978 44.8656 10.1827 44.8656 9.02195C44.8656 7.86123 44.6429 6.83341 44.2039 5.98726C43.7664 5.14465 43.1259 4.48582 42.301 4.03059C41.4739 3.57393 40.4631 3.34278 39.2953 3.34278H36.6557V14.6573Z" fill="#1D1D1B"/>
<path d="M47.5295 16.9115L53.7954 1.0885H57.2479L63.5137 16.9115H60.5851L59.1204 13.0597H51.9108L50.4575 16.9115H47.5295ZM52.6439 10.997H58.3888L56.2384 5.40053C56.0292 4.81523 55.757 4.17903 55.5633 3.49122H55.482C55.2806 4.17903 55.0042 4.81523 54.7949 5.40053L52.6439 10.997Z" fill="#1D1D1B"/>
<path d="M63.6185 16.9822H60.5372L59.0725 13.1304H51.9605L50.5071 16.9822H47.4258L53.7475 1.01782H57.2961L57.3138 1.06235L63.6185 16.9822ZM60.6348 16.8408H63.4107L57.2 1.1592H53.8436L47.6336 16.8408H50.4096L51.8629 12.989H59.1701L60.6348 16.8408ZM58.4915 11.0677H52.5408L54.7287 5.3751C54.798 5.1807 54.8743 4.98277 54.9549 4.77283C55.1146 4.35717 55.2801 3.92668 55.4137 3.47144L55.4285 3.42054H55.6165L55.6314 3.47215C55.7643 3.94506 55.9339 4.3904 56.0979 4.8209C56.1714 5.01388 56.2407 5.19625 56.305 5.37651L58.4915 11.0677ZM52.7466 10.9263H58.2858L56.1721 5.42599C56.1071 5.24503 56.0385 5.06336 55.965 4.87179C55.8109 4.46674 55.6519 4.04826 55.5211 3.60434C55.391 4.0313 55.2362 4.43423 55.0864 4.82443C55.0058 5.03367 54.9301 5.23089 54.8609 5.42529L52.7466 10.9263Z" fill="#1D1D1B"/>
<path d="M73.1085 0.83606C68.6218 0.83606 64.9849 4.47302 64.9849 8.95966C64.9849 13.4462 68.6218 17.0832 73.1085 17.0832C77.5951 17.0832 81.2321 13.4462 81.2321 8.95966C81.2321 4.47302 77.5951 0.83606 73.1085 0.83606ZM73.1085 15.1598C69.6843 15.1598 66.9083 12.3838 66.9083 8.95966C66.9083 5.53548 69.6843 2.75951 73.1085 2.75951C76.5326 2.75951 79.3086 5.53548 79.3086 8.95966C79.3086 12.3838 76.5326 15.1598 73.1085 15.1598Z" fill="#1D1D1B"/>
<path d="M69.2249 11.4189L71.1624 6.03662H72.4914L74.4283 11.4189H73.2746L72.8717 10.2172H70.7814L70.3785 11.4189H69.2249ZM71.0387 9.3993H72.6102L72.0425 7.71195C71.9704 7.4907 71.9033 7.25389 71.8411 7.00294H71.8114C71.7463 7.25459 71.6785 7.4907 71.6064 7.71195L71.0387 9.3993Z" fill="#1D1D1B"/>
<path d="M74.4793 11.4543H73.2501L72.8471 10.2525H70.8078L70.4048 11.4543H69.1755L69.1925 11.4069L71.1379 6.00134H72.5163L74.4793 11.4543ZM73.301 11.3836H74.379L72.4675 6.07203H71.1888L69.2766 11.3836H70.3546L70.7576 10.1819H72.8987L73.301 11.3836ZM72.6605 9.43472H70.9908L71.574 7.70071C71.6454 7.48158 71.714 7.24335 71.7783 6.99382L71.7854 6.96696H71.8702L71.8766 6.99382C71.9381 7.24335 72.0059 7.48087 72.0773 7.70071L72.6605 9.43472ZM71.0891 9.36403H72.5623L72.0109 7.72333C71.9458 7.52399 71.8843 7.31051 71.8278 7.08713C71.7691 7.31051 71.7062 7.5247 71.6419 7.72333L71.0891 9.36403Z" fill="#1D1D1B"/>
<path d="M74.9773 11.4188V6.0365H76.0595V11.4188H74.9773Z" fill="#1D1D1B"/>
<path d="M76.0936 11.4543H74.9407V6.00134H76.0936V11.4543ZM75.0114 11.3836H76.0229V6.07203H75.0114V11.3836Z" fill="#1D1D1B"/>
</g>
</g>
<defs>
<clipPath id="clip0_524_676">
<rect width="82" height="18" fill="white"/>
</clipPath>
</defs>
</svg>
