<svg width="261" height="64" viewBox="0 0 261 64" fill="none" xmlns="http://www.w3.org/2000/svg">
<g clip-path="url(#clip0_524_695)">
<path fill-rule="evenodd" clip-rule="evenodd" d="M63.7469 0.186982C65.6409 2.08298 52.9469 17.863 35.3969 35.432C17.8439 53.003 2.07994 65.709 0.185944 63.813C-0.889057 62.738 2.73594 57.189 9.27894 49.38C5.63022 44.5138 3.65885 38.5952 3.66094 32.513C3.66033 25.0607 6.6179 17.913 11.8839 12.64C16.2342 8.28508 21.8957 5.48146 27.9962 4.66107C34.0968 3.84067 40.2978 5.04904 45.6439 8.09998C46.6339 8.66498 47.5939 9.29198 48.5139 9.97898C56.7409 2.99498 62.6339 -0.926018 63.7459 0.187982M18.9899 38.451C21.9449 35.281 25.1499 31.957 28.5369 28.567C31.5227 25.576 34.5554 22.6323 37.6339 19.737C35.0226 18.5274 32.1027 18.1495 29.2695 18.6544C26.4362 19.1594 23.8266 20.5227 21.7939 22.56C19.7544 24.6019 18.3915 27.2213 17.89 30.0635C17.3885 32.9056 17.7724 35.8343 18.9899 38.451ZM16.1179 55.862C16.2526 55.9526 16.3883 56.042 16.5249 56.13C21.9168 59.6097 28.3386 61.1357 34.7194 60.4537C41.1002 59.7716 47.0544 56.9227 51.5889 52.382C56.1674 47.7964 59.0221 41.7706 59.6704 35.3232C60.3187 28.8758 58.7208 22.4023 55.1469 16.997C53.8613 18.6637 52.543 20.305 51.1929 21.92C53.4764 26.122 54.3405 30.9496 53.6564 35.6828C52.9723 40.4161 50.7767 44.8014 47.3969 48.185C44.0071 51.5786 39.6067 53.7792 34.858 54.4555C30.1093 55.1318 25.2694 54.2473 21.0669 51.935C19.4442 53.2779 17.7948 54.5872 16.1179 55.862ZM23.0809 50.246C26.7714 52.051 30.9338 52.6572 34.9858 51.9796C39.0378 51.302 42.7766 49.3745 45.6789 46.467C48.5733 43.5692 50.4953 39.8432 51.1786 35.8049C51.8619 31.7666 51.2728 27.6157 49.4929 23.927C48.0395 25.6195 46.5604 27.2897 45.0559 28.937C45.6832 31.2769 45.6839 33.7406 45.058 36.0809C44.4321 38.4212 43.2015 40.5556 41.4899 42.27C39.7722 43.9903 37.63 45.2256 35.2806 45.8505C32.9312 46.4754 30.4584 46.4676 28.1129 45.828C26.4599 47.3269 24.7833 48.7997 23.0839 50.246M135.766 50.386V13.615H141.537V24.298H149.973C155.136 24.298 157.718 26.915 157.718 32.149V42.534C157.718 47.7686 155.136 50.386 149.973 50.386H135.766ZM141.537 45.317H149.677C151.19 45.317 151.947 44.555 151.947 43.031V31.652C151.947 30.128 151.19 29.366 149.677 29.366H141.537V45.317ZM75.7979 16.099V50.386H81.8169V38.857H92.1769C97.5369 38.857 100.217 36.1736 100.218 30.807V24.2C100.218 18.8 97.5373 16.1 92.1759 16.1L75.7979 16.099ZM92.0279 33.342H81.8169V21.615H92.0279C93.4746 21.615 94.1983 22.327 94.1989 23.751V31.155C94.1989 32.613 93.4746 33.342 92.0279 33.342Z" fill="black"/>
<path d="M106.422 24.298V42.534C106.422 47.7687 109.02 50.386 114.216 50.386H128.375V24.298H122.603V45.318H114.463C112.95 45.318 112.193 44.5557 112.194 43.031V24.298H106.422ZM164.522 13.615V50.385H170.294V13.615H164.522ZM177.581 19.776V13.863H183.648V19.776H177.581ZM177.729 50.386V24.298H183.5V50.386H177.729ZM190.486 32.15V42.534C190.486 47.7687 193.084 50.386 198.28 50.386H210.219V45.317H198.527C197.014 45.317 196.257 44.555 196.258 43.031V31.652C196.258 30.128 197.014 29.366 198.527 29.366H210.219V24.298H198.28C193.084 24.298 190.486 26.915 190.486 32.149" fill="black"/>
<path fill-rule="evenodd" clip-rule="evenodd" d="M227.883 13.79L215.954 50.21H222.824L225.353 42.187H240.375L242.852 50.211H249.622L237.898 13.79H227.883ZM238.636 36.328H227.145L232.363 19.648H233.365L238.636 36.328Z" fill="black"/>
<path d="M254.57 13.79V50.21H261V13.79H254.57Z" fill="black"/>
</g>
<defs>
<clipPath id="clip0_524_695">
<rect width="261" height="64" fill="white"/>
</clipPath>
</defs>
</svg>
