<svg width="112" height="112" fill="none" xmlns="http://www.w3.org/2000/svg"><path d="M70.01 5.198v-3.21A1.986 1.986 0 0067.944.001c-21.728 1.074-39.05 18.533-39.941 40.257a1.714 1.714 0 001.801 1.721h3.311a1.927 1.927 0 001.94-1.8c.939-17.905 15.253-32.211 33.167-33.149 1.364-.172 1.802-.92 1.802-1.827l-.014-.006zM40.493 42.014h3.14a1.92 1.92 0 001.92-1.774c.87-12.203 10.615-21.892 22.828-22.698a1.754 1.754 0 001.63-1.853v-3.197a1.985 1.985 0 00-2.087-1.94c-15.777 1.044-28.344 13.601-29.391 29.37a1.985 1.985 0 001.94 2.085l.02.007zM70.01 23.035v3.21a1.88 1.88 0 01-1.695 1.854 14.023 14.023 0 00-12.212 12.166 1.987 1.987 0 01-1.934 1.74h-2.775c-1.51 0-2.417-.979-2.305-2.11 1.007-9.939 8.872-17.796 18.815-18.8a1.941 1.941 0 012.106 1.94zm36.809 46.897c-.907 0-1.656-.437-1.828-1.8-.926-17.927-15.262-32.253-33.2-33.175a1.927 1.927 0 01-1.8-1.94v-3.31a1.714 1.714 0 011.721-1.8c21.74.888 39.211 18.201 40.286 39.92a1.985 1.985 0 01-1.947 2.072l-3.232.033zM70.01 40.418a1.985 1.985 0 012.093-1.94c15.772 1.047 28.334 13.6 29.385 29.364a1.983 1.983 0 01-1.94 2.091h-3.2a1.755 1.755 0 01-1.854-1.648c-.812-12.2-10.5-21.931-22.702-22.803a1.92 1.92 0 01-1.775-1.92l-.007-3.144zm18.98 29.509h-3.218a1.88 1.88 0 01-1.854-1.695 14.023 14.023 0 00-12.18-12.206 1.986 1.986 0 01-1.741-1.933V50.97a1.94 1.94 0 012.113-1.94c9.943 1.004 17.808 8.861 18.815 18.8a1.939 1.939 0 01-1.94 2.104l.006-.006zM5.162 42c.907 0 1.656.437 1.828 1.8.927 17.935 15.275 32.263 33.22 33.176 1.02.067 1.81.918 1.8 1.94v3.309a1.714 1.714 0 01-1.721 1.8c-21.74-.887-39.211-18.2-40.286-39.92a1.985 1.985 0 011.947-2.072L5.16 42zM41.99 71.49a1.985 1.985 0 01-2.093 1.94c-15.763-1.05-28.319-13.59-29.378-29.344a1.985 1.985 0 011.94-2.091h3.199a1.755 1.755 0 011.854 1.648c.809 12.2 10.495 21.934 22.696 22.81a1.92 1.92 0 011.775 1.92l.007 3.117zM22.99 42H26.2c.96.01 1.76.74 1.855 1.695A14.023 14.023 0 0040.235 55.9c.98.121 1.723.945 1.742 1.932v3.131a1.94 1.94 0 01-2.1 1.92c-9.944-1.003-17.808-8.86-18.815-18.799A1.939 1.939 0 0122.989 42zm18.993 64.822c0-.907.437-1.655 1.802-1.827 17.936-.922 32.272-15.248 33.199-33.175a1.927 1.927 0 011.94-1.8h3.312a1.716 1.716 0 011.801 1.72c-.892 21.727-18.217 39.187-39.948 40.258a1.99 1.99 0 01-2.073-1.946l-.033-3.23zm29.53-36.81a1.987 1.987 0 011.941 2.092c-1.05 15.764-13.612 28.317-29.385 29.363a1.985 1.985 0 01-2.093-1.94V96.33a1.754 1.754 0 011.65-1.853c12.205-.808 21.946-10.489 22.821-22.684a1.92 1.92 0 011.92-1.774l3.147-.006zM41.997 88.984v-3.21a1.88 1.88 0 011.696-1.853 14.023 14.023 0 0012.212-12.166 1.986 1.986 0 011.934-1.741h2.775c1.51 0 2.417.98 2.304 2.111-1.006 9.938-8.871 17.796-18.815 18.799a1.94 1.94 0 01-2.106-1.94zm0 17.839c0-.907.437-1.655 1.802-1.827 17.936-.922 32.273-15.248 33.2-33.175a1.927 1.927 0 011.94-1.8h3.311a1.716 1.716 0 011.801 1.72c-.891 21.727-18.217 39.187-39.948 40.258a1.988 1.988 0 01-2.073-1.946l-.033-3.23zm29.53-36.81a1.987 1.987 0 011.941 2.092c-1.05 15.764-13.612 28.317-29.384 29.363a1.985 1.985 0 01-2.093-1.94V96.33a1.755 1.755 0 011.649-1.853c12.206-.808 21.946-10.489 22.821-22.684a1.92 1.92 0 011.921-1.774l3.146-.006zm-29.53 18.971v-3.21a1.88 1.88 0 011.696-1.853 14.023 14.023 0 0012.212-12.166 1.986 1.986 0 011.934-1.741h2.775c1.51 0 2.417.98 2.304 2.111-1.006 9.938-8.871 17.796-18.815 18.799a1.94 1.94 0 01-2.106-1.94z" fill="#FF5C00"/></svg>