<svg width="131" height="37" viewBox="0 0 131 37" fill="none" xmlns="http://www.w3.org/2000/svg">
<mask id="mask0_524_702" style="mask-type:luminance" maskUnits="userSpaceOnUse" x="15" y="5" width="102" height="28">
<path d="M116.397 5H15V33H116.397V5Z" fill="white"/>
</mask>
<g mask="url(#mask0_524_702)">
<path d="M40.2622 5.92085L35.649 32.3448C35.617 32.5279 35.5201 32.6941 35.3755 32.8139C35.2309 32.9337 35.0478 32.9995 34.8586 32.9996H20.4144C20.2252 32.9995 20.0421 32.9337 19.8975 32.8139C19.7529 32.6941 19.656 32.5279 19.624 32.3448L15.0115 5.92085C14.9918 5.80778 14.9974 5.69183 15.0281 5.58112C15.0587 5.47041 15.1135 5.3676 15.1888 5.27987C15.2641 5.19214 15.3579 5.12161 15.4638 5.0732C15.5697 5.02479 15.6851 4.9997 15.802 4.99963H20.1496C20.3385 4.99965 20.5213 5.06509 20.6659 5.18444C20.8105 5.3038 20.9076 5.46939 20.94 5.65211L24.2638 24.3288C24.5848 26.0625 25.9385 27.2177 27.6582 27.2177C29.3329 27.2177 30.6898 26.0625 31.0525 24.3288L34.3313 5.65211C34.3635 5.46897 34.4606 5.3029 34.6053 5.18321C34.7501 5.06353 34.9333 4.99795 35.1226 4.99805H39.4686C39.5859 4.99762 39.7018 5.0224 39.8082 5.0707C39.9146 5.119 40.009 5.18963 40.0847 5.2776C40.1603 5.36557 40.2154 5.46876 40.2461 5.57989C40.2768 5.69102 40.2823 5.8074 40.2622 5.92085Z" fill="black"/>
<path d="M62.8033 33H50.3099C45.5322 33 41.6355 29.1969 41.6563 24.5056C41.6788 19.4669 45.1125 16.1106 50.2546 16.1106H55.6511C56.0133 16.1118 56.3722 16.0424 56.7069 15.9065C57.0417 15.7706 57.3457 15.5708 57.6013 15.3188C57.857 15.0668 58.0592 14.7675 58.1964 14.4382C58.3335 14.109 58.4028 13.7563 58.4003 13.4005C58.381 11.8244 57.3001 10.7779 55.6856 10.7779H46.0786C45.8658 10.7779 45.6617 10.6949 45.5112 10.5471C45.3607 10.3993 45.2762 10.1989 45.2762 9.98988V5.78804C45.2762 5.57904 45.3607 5.37858 45.5112 5.23079C45.6617 5.08301 45.8658 5 46.0786 5H62.8033C63.0161 5 63.2202 5.08301 63.3707 5.23079C63.5212 5.37858 63.6057 5.57904 63.6057 5.78804V32.2119C63.6057 32.3154 63.585 32.4179 63.5447 32.5135C63.5043 32.6091 63.4452 32.696 63.3707 32.7692C63.2962 32.8424 63.2077 32.9004 63.1104 32.94C63.013 32.9796 62.9087 33 62.8033 33ZM58.3978 24.5553C58.3978 22.9556 57.3113 21.8885 55.6823 21.8885H50.2514C48.6224 21.8885 47.5359 22.9556 47.5359 24.5553C47.5359 26.155 48.6224 27.222 50.2514 27.222H55.6823C57.3145 27.222 58.3978 26.155 58.3978 24.5553Z" fill="black"/>
<path d="M90.8788 15.8884V32.2119C90.8788 32.4209 90.7943 32.6214 90.6438 32.7692C90.4933 32.917 90.2892 33 90.0764 33H85.7977C85.5849 33 85.3808 32.917 85.2303 32.7692C85.0798 32.6214 84.9953 32.4209 84.9953 32.2119V15.9254C84.9953 13.0885 82.661 10.7708 79.7745 10.7779C76.6602 10.785 74.5859 12.8269 74.5859 15.8884V32.2119C74.5859 32.4209 74.5013 32.6214 74.3509 32.7692C74.2004 32.917 73.9963 33 73.7834 33H69.5056C69.2928 33 69.0886 32.917 68.9382 32.7692C68.7877 32.6214 68.7031 32.4209 68.7031 32.2119V5.78804C68.7031 5.57904 68.7877 5.37858 68.9382 5.23079C69.0886 5.08301 69.2928 5 69.5056 5H79.7906C86.4437 5 90.8788 9.35551 90.8788 15.8884Z" fill="black"/>
<path d="M115.587 33H103.091C98.3134 33 94.4167 29.1969 94.4376 24.5056C94.4601 19.4669 97.8937 16.1106 103.036 16.1106H108.432C108.795 16.1118 109.153 16.0424 109.488 15.9065C109.823 15.7706 110.127 15.5708 110.383 15.3188C110.639 15.0668 110.841 14.7676 110.978 14.4383C111.115 14.109 111.185 13.7563 111.182 13.4005C111.162 11.8244 110.081 10.7779 108.467 10.7779H98.8623C98.6495 10.7779 98.4454 10.6949 98.2949 10.5471C98.1444 10.3993 98.0599 10.1989 98.0599 9.98988V5.78804C98.0599 5.57904 98.1444 5.37858 98.2949 5.23079C98.4454 5.08301 98.6495 5 98.8623 5H115.587C115.8 5 116.004 5.08301 116.154 5.23079C116.305 5.37858 116.389 5.57904 116.389 5.78804V32.2119C116.389 32.3154 116.369 32.4179 116.328 32.5135C116.288 32.6091 116.229 32.696 116.154 32.7692C116.08 32.8424 115.991 32.9004 115.894 32.94C115.797 32.9796 115.692 33 115.587 33ZM111.185 24.5553C111.185 22.9556 110.098 21.8885 108.469 21.8885H103.038C101.409 21.8885 100.323 22.9556 100.323 24.5553C100.323 26.155 101.409 27.222 103.038 27.222H108.468C110.098 27.222 111.185 26.155 111.185 24.5553Z" fill="black"/>
</g>
</svg>
