<svg width="140" height="30" viewBox="0 0 140 30" fill="none" xmlns="http://www.w3.org/2000/svg">
<g clip-path="url(#clip0_258_1473)">
<mask id="mask0_258_1473" style="mask-type:luminance" maskUnits="userSpaceOnUse" x="0" y="-1" width="140" height="31">
<path d="M140 -0.0180664H0V29.9999H140V-0.0180664Z" fill="white"/>
</mask>
<g mask="url(#mask0_258_1473)">
<path d="M37.413 12.3149C36.48 11.6879 34.031 11.4189 32.25 11.8999C32.153 10.1259 31.238 8.62993 29.565 7.32693L28.946 6.91093L28.532 7.53493C27.721 8.76693 27.379 10.4079 27.5 11.9009C27.595 12.8209 27.915 13.8539 28.532 14.6039C26.214 15.9489 24.077 15.6429 14.613 15.6429H0.00298919C-0.0390108 17.7799 0.304989 21.8909 2.91799 25.2359C3.20699 25.6059 3.52199 25.9629 3.86599 26.3079C5.99199 28.4359 9.20199 29.9969 14.004 30.0009C21.329 30.0079 27.605 26.0479 31.423 16.4739C32.68 16.4939 35.995 16.6989 37.618 13.5629C37.657 13.5109 38.031 12.7319 38.031 12.7319L37.413 12.3169V12.3149ZM9.53799 10.3619H5.42999V14.4699H9.53799V10.3619ZM14.846 10.3619H10.738V14.4699H14.846V10.3619ZM20.154 10.3619H16.046V14.4699H20.154V10.3619ZM25.462 10.3619H21.354V14.4699H25.462V10.3619ZM4.22999 10.3619H0.121989V14.4699H4.22999V10.3619ZM9.53799 5.17193H5.42999V9.27993H9.53799V5.17193ZM14.846 5.17193H10.738V9.27993H14.846V5.17193ZM20.154 5.17193H16.046V9.27993H20.154V5.17193ZM20.154 -0.0180664H16.046V4.09093H20.154V-0.0180664Z" fill="#1E2119"/>
<path d="M50.297 25.7561C46.573 25.7561 43.559 22.8561 43.559 18.0791C43.559 13.3021 46.601 10.4311 50.326 10.4311C53.426 10.4311 54.876 12.3081 55.131 12.7631V4.51807H59.737V25.4441H55.187V23.2831C54.903 23.7671 53.424 25.7561 50.297 25.7561ZM51.719 14.3551C49.586 14.3551 48.222 15.9481 48.222 18.0791C48.222 20.2111 49.586 21.8031 51.719 21.8031C53.851 21.8031 55.187 20.2401 55.187 18.0791C55.187 15.9191 53.823 14.3551 51.719 14.3551Z" fill="#1E2119"/>
<path d="M77.564 18.0787C77.564 22.6287 74.096 25.8127 69.49 25.8127C64.884 25.8127 61.415 22.6287 61.415 18.0787C61.415 13.5297 64.856 10.3447 69.49 10.3447C74.123 10.3447 77.564 13.5017 77.564 18.0787ZM72.929 18.0787C72.929 15.9757 71.565 14.3547 69.489 14.3547C67.412 14.3547 66.02 15.9757 66.02 18.0787C66.02 20.1827 67.413 21.8027 69.489 21.8027C71.564 21.8027 72.929 20.1827 72.929 18.0787Z" fill="#1E2119"/>
<path d="M86.15 14.3547C84.245 14.3547 82.994 15.9757 82.994 18.0787C82.994 20.1827 84.245 21.8327 86.179 21.8327C88.112 21.8327 88.794 20.6667 88.965 20.3257H93.401C93.23 22.3727 91.268 25.8127 86.065 25.8127C81.715 25.8127 78.36 22.7707 78.36 18.0787C78.36 13.3867 81.715 10.3447 86.008 10.3447C91.211 10.3447 93.174 13.7287 93.401 15.8607H88.908C88.68 15.4637 87.941 14.3547 86.15 14.3547Z" fill="#1E2119"/>
<path d="M94.907 4.51807H99.512V16.4881L105.398 10.7161H111.198L104.147 17.5111L111.567 25.4441H105.569L99.512 18.8761V25.4441H94.907V4.51807Z" fill="#1E2119"/>
<path d="M126.182 18.1647V18.9617H114.98C115.207 20.8097 116.6 22.2027 118.619 22.2027C120.41 22.2027 121.263 21.3787 121.461 21.0657H126.039C125.812 22.8287 123.707 25.8137 118.619 25.8137C113.531 25.8137 110.43 22.5727 110.43 18.0797C110.43 13.5877 113.671 10.3457 118.306 10.3457C122.941 10.3457 126.182 13.3597 126.182 18.1647ZM115.065 16.1457H121.548C121.15 14.6097 119.956 13.7007 118.306 13.7007C116.657 13.7007 115.464 14.6397 115.065 16.1457Z" fill="#1E2119"/>
<path d="M132.382 25.444H127.775V10.716H132.382V13.019C132.694 12.337 133.774 10.687 136.845 10.687H140.001V15.237H135.963C133.376 15.237 132.38 16.203 132.38 18.251V25.444H132.382Z" fill="#1E2119"/>
</g>
</g>
<defs>
<clipPath id="clip0_258_1473">
<rect width="140" height="30" fill="white"/>
</clipPath>
</defs>
</svg>
