<svg width="138" height="48" viewBox="0 0 138 48" fill="none" xmlns="http://www.w3.org/2000/svg">
<path d="M0 7.68C0 4.99175 0 3.64762 0.523169 2.62085C0.983362 1.71767 1.71767 0.983361 2.62085 0.523169C3.64762 0 4.99175 0 7.68001 0H40.32C43.0083 0 44.3524 0 45.3792 0.523169C46.2824 0.983361 47.0167 1.71767 47.4769 2.62085C48 3.64762 48 4.99175 48 7.68V40.32C48 43.0083 48 44.3524 47.4769 45.3792C47.0167 46.2823 46.2824 47.0166 45.3792 47.4768C44.3524 48 43.0083 48 40.32 48H7.68001C4.99175 48 3.64762 48 2.62085 47.4768C1.71767 47.0166 0.983362 46.2823 0.523169 45.3792C0 44.3524 0 43.0083 0 40.32V7.68Z" fill="#CDFA50"/>
<path d="M11.2 29.3337H16.5333V37.3337H11.2V29.3337Z" fill="#1E2119"/>
<path d="M32.5333 16.0003H37.8667V24.0003H32.5333V16.0003Z" fill="#1E2119"/>
<path d="M16.5333 24.0003H32.5333V29.3337H16.5333V24.0003Z" fill="#1E2119"/>
<path d="M11.2 10.667H32.5333V16.0003H16.5333V24.0003L11.2 23.9337V10.667Z" fill="#1E2119"/>
<path d="M71.8631 21.5534C71.8631 25.2787 69.5299 27.4266 65.459 27.4266H62.2804V31.9977H58.6666V15.9998H65.459C69.5299 15.9998 71.8631 18.0111 71.8631 21.5534ZM68.4325 21.6676C68.4325 19.8852 67.2886 18.9941 65.2763 18.9941H62.2804V24.4105H65.2763C67.2886 24.4105 68.4325 23.4958 68.4325 21.6676Z" fill="#1E2119"/>
<path d="M77.5266 15.9998V23.999H84.7766V15.9998H88.3883V31.9977H84.7766V27.1982H77.5266V31.9977H73.916V15.9998H77.5266Z" fill="#1E2119"/>
<path d="M102.261 28.798H94.9242L93.6297 31.9998H89.9017L96.8542 16.002H100.582L107.421 31.9998H103.555L102.261 28.798ZM100.974 25.5962L98.6133 19.7711L96.2332 25.5984L100.974 25.5962Z" fill="#1E2119"/>
<path d="M132.71 28.798H125.373L124.078 31.9998H120.35L127.303 16.002H131.031L137.867 31.9998H134.001L132.71 28.798ZM131.423 25.5962L129.064 19.7689L126.684 25.5962H131.423Z" fill="#1E2119"/>
<path d="M112.686 15.9998V28.8439H119.547V31.9977H109.072V15.9998H112.686Z" fill="#1E2119"/>
</svg>
