<svg width="32" height="32" viewBox="0 0 32 32" fill="none" xmlns="http://www.w3.org/2000/svg">
<path d="M0 5.12C0 3.32783 0 2.43175 0.348779 1.74723C0.655574 1.14511 1.14511 0.655573 1.74723 0.348779C2.43175 0 3.32783 0 5.12 0H26.88C28.6722 0 29.5683 0 30.2528 0.348779C30.8549 0.655573 31.3444 1.14511 31.6512 1.74723C32 2.43175 32 3.32783 32 5.12V26.88C32 28.6721 32 29.5682 31.6512 30.2527C31.3444 30.8549 30.8549 31.3444 30.2528 31.6512C29.5683 32 28.6722 32 26.88 32H5.12C3.32783 32 2.43175 32 1.74723 31.6512C1.14511 31.3444 0.655574 30.8549 0.348779 30.2527C0 29.5682 0 28.6721 0 26.88V5.12Z" fill="#CDFA50"/>
<path d="M7.46667 19.5558H11.0222V24.8891H7.46667V19.5558Z" fill="#1E2119"/>
<path d="M21.6889 10.6669H25.2445V16.0002H21.6889V10.6669Z" fill="#1E2119"/>
<path d="M11.0222 16.0002H21.6889V19.5558H11.0222V16.0002Z" fill="#1E2119"/>
<path d="M7.46667 7.11133H21.6889V10.6669H11.0222V16.0002L7.46667 15.9558V7.11133Z" fill="#1E2119"/>
</svg>
