<svg width="389" height="151" viewBox="0 0 389 151" fill="none" xmlns="http://www.w3.org/2000/svg">
<g clip-path="url(#clip0_42_2)">
<path d="M28.1 2.10001H0V30.2H28.1V2.10001Z" fill="#04C7FD"/>
<path d="M27.4 148.5V47.3H0.8V148.5H27.4ZM204.2 149.5V124.7C200.3 124.7 197 124.5 194.6 124.1C191.8 123.7 189.7 122.7 188.3 121.3C186.9 119.9 186 117.9 185.5 115.3C185.1 112.8 184.9 109.5 184.9 105.5V70.1H204.2V47.3H184.9V7.8H158.2V105.7C158.2 114 158.9 121 160.3 126.6C161.7 132.1 164.1 136.6 167.4 140C170.7 143.4 175.1 145.8 180.4 147.3C185.8 148.8 192.6 149.5 200.7 149.5H204.2ZM357 148.5V0H330.3V148.5H357ZM132.5 57.2C125.1 49.2 114.7 45.2 101.5 45.2C95.1 45.2 89.3 46.5 84 49.1C78.8 51.7 74.3 55.3 70.8 59.9L69.3 61.8V60.1V47.3H43V148.5H69.5V94.6V98.3C69.5 97.7 69.5 97.1 69.5 96.5C69.8 87 72.1 80 76.5 75.5C81.2 70.7 86.9 68.3 93.4 68.3C101.1 68.3 107 70.7 110.9 75.3C114.7 79.9 116.7 86.4 116.7 94.7V94.9V148.4H143.6V91C143.7 76.6 139.9 65.2 132.5 57.2ZM316.5 97.7C316.5 90.4 315.2 83.6 312.7 77.2C310.1 70.9 306.5 65.3 302 60.5C297.4 55.7 291.9 52 285.5 49.3C279.1 46.6 272 45.3 264.3 45.3C257 45.3 250.1 46.7 243.7 49.4C237.3 52.2 231.7 55.9 227 60.6C222.3 65.3 218.5 70.9 215.8 77.3C213 83.7 211.7 90.6 211.7 97.9C211.7 105.2 213 112.1 215.6 118.5C218.2 124.9 221.9 130.5 226.5 135.2C231.1 139.9 236.8 143.7 243.4 146.4C250 149.2 257.3 150.6 265.1 150.6C287.7 150.6 301.7 140.3 310.1 130.7L290.9 116.1C286.9 120.9 277.3 127.4 265.3 127.4C257.8 127.4 251.6 125.7 246.9 122.2C242.2 118.8 239 114 237.3 108.1L237 107.2H316.5V97.7ZM237.2 88.4C237.2 81 245.7 68.1 264 68C282.3 68 290.9 80.9 290.9 88.3L237.2 88.4Z" fill="#0068B5"/>
<path d="M387.4 135.3C386.9 134.1 386.2 133.1 385.3 132.2C384.4 131.3 383.4 130.6 382.2 130.1C381 129.6 379.7 129.3 378.4 129.3C377 129.3 375.8 129.6 374.6 130.1C373.4 130.6 372.4 131.3 371.5 132.2C370.6 133.1 369.9 134.1 369.4 135.3C368.9 136.5 368.6 137.8 368.6 139.1C368.6 140.5 368.9 141.7 369.4 142.9C369.9 144.1 370.6 145.1 371.5 146C372.4 146.9 373.4 147.6 374.6 148.1C375.8 148.6 377.1 148.9 378.4 148.9C379.8 148.9 381 148.6 382.2 148.1C383.4 147.6 384.4 146.9 385.3 146C386.2 145.1 386.9 144.1 387.4 142.9C387.9 141.7 388.2 140.4 388.2 139.1C388.2 137.8 387.9 136.5 387.4 135.3ZM385.8 142.3C385.4 143.3 384.8 144.2 384.1 144.9C383.4 145.6 382.5 146.2 381.5 146.6C380.5 147 379.5 147.2 378.3 147.2C377.2 147.2 376.1 147 375.1 146.6C374.1 146.2 373.2 145.6 372.5 144.9C371.8 144.2 371.2 143.3 370.8 142.3C370.4 141.3 370.2 140.3 370.2 139.1C370.2 138 370.4 136.9 370.8 135.9C371.2 134.9 371.8 134 372.5 133.3C373.2 132.6 374.1 132 375.1 131.6C376.1 131.2 377.1 131 378.3 131C379.4 131 380.5 131.2 381.5 131.6C382.5 132 383.4 132.6 384.1 133.3C384.8 134 385.4 134.9 385.8 135.9C386.2 136.9 386.4 137.9 386.4 139.1C386.5 140.3 386.2 141.3 385.8 142.3ZM380.2 139.9C381 139.8 381.6 139.5 382.1 139C382.6 138.5 382.9 137.8 382.9 136.8C382.9 135.7 382.6 134.9 381.9 134.3C381.3 133.7 380.2 133.4 378.9 133.4H374.5V144.7H376.6V140.1H378.1L380.9 144.7H383.1L380.2 139.9ZM379.1 138.3C378.8 138.3 378.5 138.3 378.1 138.3H376.6V135.1H378.1C378.4 135.1 378.7 135.1 379.1 135.1C379.4 135.1 379.7 135.2 380 135.3C380.3 135.4 380.5 135.6 380.6 135.8C380.7 136 380.8 136.3 380.8 136.7C380.8 137.1 380.7 137.4 380.6 137.6C380.4 137.8 380.2 138 380 138.1C379.7 138.2 379.4 138.3 379.1 138.3Z" fill="#0068B5"/>
</g>
<defs>
<clipPath id="clip0_42_2">
<rect width="388.2" height="150.6" fill="white"/>
</clipPath>
</defs>
</svg>
